<svg width="86" height="86" viewBox="0 0 86 86" fill="none" xmlns="http://www.w3.org/2000/svg">
<g clip-path="url(#clip0_971_183)">
<path d="M71.3887 0.5H14.6113C6.81786 0.5 0.5 6.81786 0.5 14.6113V69.2637C0.5 77.0571 6.81786 83.375 14.6113 83.375H71.3887C79.1821 83.375 85.5 77.0571 85.5 69.2637V14.6113C85.5 6.81786 79.1821 0.5 71.3887 0.5Z" fill="#00005B"/>
<path d="M34.647 50.0832H21.475L18.7948 58.4241C18.7605 58.5671 18.6801 58.6948 18.566 58.7876C18.452 58.8804 18.3106 58.9332 18.1636 58.9378L11.4393 58.9375C11.0588 58.9375 10.9257 58.7283 11.0402 58.3099L22.4445 25.6019L22.5584 25.2582L22.5962 25.1407L22.6726 24.895C22.7105 24.7681 22.7483 24.6337 22.7865 24.4879C22.9359 23.7272 23.0123 22.9539 23.0146 22.1786C23.0069 22.1244 23.0119 22.0692 23.0292 22.0172C23.0466 21.9653 23.0758 21.9181 23.1145 21.8794C23.1532 21.8407 23.2004 21.8115 23.2523 21.7942C23.3042 21.7768 23.3595 21.7718 23.4137 21.7795H32.4801C32.7458 21.7795 32.8975 21.8745 32.9364 22.0647L45.8799 58.3674C45.9938 58.7475 45.8799 58.9378 45.5379 58.9375H38.125C37.9977 58.9516 37.8696 58.9189 37.7647 58.8454C37.6598 58.772 37.5852 58.6628 37.5549 58.5384L34.647 50.0832ZM23.5279 43.0504H32.5373L32.4088 42.6264L32.2026 41.9551L31.9008 40.9935L31.3214 39.1783L30.7695 37.4338L29.7429 34.1835C29.4592 33.2863 29.1869 32.3856 28.9261 31.4815L28.6346 30.4535L28.3198 29.3269L28.0323 28.282H27.9751C27.69 29.6507 27.3425 31.0057 26.9339 32.3428L26.5487 33.5789L25.6224 36.5672L25.1529 38.0896C25.0679 38.3645 24.9835 38.6364 24.8989 38.905L24.6465 39.7012L24.3955 40.4788L24.1458 41.2372L23.8975 41.9766C23.774 42.3419 23.6504 42.6995 23.5279 43.0504ZM66.864 46.8369H55.631C55.7686 47.9482 56.1377 49.0184 56.7144 49.9783C57.3521 50.9288 58.2538 51.6721 59.3086 52.1165C60.7382 52.7352 62.2844 53.0382 63.8418 53.0051C65.0774 52.9814 66.3084 52.8463 67.5197 52.6013C68.6031 52.4551 69.6648 52.1784 70.6817 51.7772C70.8716 51.6258 70.9672 51.7201 70.9672 52.0621V57.4792C70.9765 57.6269 70.947 57.7744 70.8812 57.9068C70.8161 58.0104 70.7285 58.0981 70.6249 58.1635C69.4969 58.6632 68.3097 59.0169 67.0921 59.216C65.438 59.5266 63.7569 59.6698 62.0741 59.6434C59.459 59.6434 57.2547 59.2509 55.461 58.4663L55.2884 58.3889C53.5641 57.6293 52.0412 56.4773 50.8411 55.0248C49.72 53.6561 48.8861 52.0757 48.3891 50.3777C47.8972 48.7017 47.6478 46.9639 47.6483 45.2173C47.6431 43.31 47.9415 41.4141 48.5322 39.6006C49.1011 37.8318 50.0008 36.1871 51.1835 34.754C52.35 33.3375 53.8088 32.1898 55.46 31.3895C57.1325 30.5727 59.1094 30.2795 61.3901 30.2795C63.2817 30.2317 65.1606 30.6016 66.8929 31.3629C68.3494 31.9841 69.6316 32.9525 70.6275 34.1835C71.5617 35.389 72.2759 36.7498 72.7373 38.2034C73.1865 39.6043 73.4174 41.066 73.4216 42.5371C73.4216 43.3738 73.393 44.1342 73.3363 44.8182L73.2855 45.4039L73.2323 45.9597L73.2008 46.2412C73.1984 46.2611 73.196 46.2809 73.1935 46.3007C73.1787 46.4264 73.1183 46.5422 73.0237 46.6263C72.9292 46.7104 72.807 46.7569 72.6805 46.7569L72.5241 46.7602L72.3292 46.7702L72.1775 46.7811L71.8229 46.8114L71.5114 46.8422C71.4267 46.8512 71.3388 46.8595 71.2475 46.8671L70.9649 46.8894L70.6631 46.9093L70.3427 46.9259L70.0033 46.9402L69.8264 46.9462L69.4588 46.9561C69.0952 46.9651 68.7227 46.9425 68.3405 46.9146L67.7608 46.8721C67.4624 46.8502 67.1631 46.8385 66.864 46.8369ZM55.6314 41.6423H63.3962L64.0576 41.638L64.5072 41.6317L64.7984 41.625L65.1251 41.6137C65.4175 41.5845 65.6999 41.491 65.9519 41.3398V40.9978C65.9405 40.5519 65.8638 40.11 65.7241 39.6863C65.4165 38.7134 64.798 37.8685 63.9636 37.2813C63.1292 36.694 62.1251 36.397 61.1056 36.4357C60.1459 36.3777 59.19 36.6002 58.3547 37.0761C57.5193 37.552 56.8405 38.2607 56.401 39.1159C56.0104 39.9113 55.7505 40.7642 55.6314 41.6423Z" fill="#9999FF"/>
</g>
<rect x="1" y="1" width="84" height="84" stroke="#FFFCF5" stroke-opacity="0.25"/>
<defs>
<clipPath id="clip0_971_183">
<rect x="0.5" y="0.5" width="85" height="85" fill="white"/>
</clipPath>
</defs>
</svg>
