<svg width="87" height="86" viewBox="0 0 87 86" fill="none" xmlns="http://www.w3.org/2000/svg">
<rect x="1" y="0.5" width="85" height="85" stroke="#FFFCF5" stroke-opacity="0.25"/>
<path d="M54.9264 6.66319C55.5571 7.44046 55.8786 8.48922 56.5219 10.5867L70.5739 56.4086C65.2957 53.6896 59.6306 51.7857 53.774 50.7625L44.6247 20.0715C44.5517 19.8267 44.4009 19.612 44.1947 19.4594C43.9885 19.3068 43.7381 19.2245 43.481 19.2249C43.2238 19.2253 42.9737 19.3083 42.768 19.4616C42.5623 19.6148 42.4121 19.8301 42.3399 20.0751L33.3014 50.7472C27.4183 51.7655 21.7271 53.6724 16.4258 56.4015L30.5466 10.576C31.1919 8.48229 31.5147 7.43521 32.1455 6.65941C32.7023 5.97456 33.4265 5.44269 34.2492 5.11452C35.1809 4.74268 36.284 4.74268 38.4899 4.74268H48.5756C50.7845 4.74268 51.8888 4.74268 52.8216 5.11515C53.6449 5.44412 54.3695 5.97709 54.9262 6.66319" fill="#FFFCF5"/>
<path d="M56.6082 58.5893C54.2916 60.5554 49.6679 61.8964 44.3419 61.8964C37.8052 61.8964 32.3263 59.8764 30.8726 57.1597C30.3526 58.7165 30.2361 60.4987 30.2361 61.6369C30.2361 61.6369 29.8937 67.2267 33.8103 71.1145C33.8103 69.0957 35.4591 67.4591 37.4928 67.4591C40.9786 67.4591 40.9744 70.4779 40.9714 72.9271L40.9712 73.1457C40.9712 76.863 43.2598 80.0498 46.515 81.3929C46.014 80.3693 45.7544 79.2458 45.7561 78.1077C45.7561 74.5623 47.8529 73.2423 50.29 71.7081C52.2289 70.4874 54.3834 69.131 55.8681 66.4103C56.6677 64.9446 57.0852 63.3037 57.0826 61.6369C57.0826 60.5745 56.9163 59.5505 56.6082 58.5893Z" fill="#FF5D01"/>
</svg>
