<svg width="86" height="85" viewBox="0 0 86 85" fill="none" xmlns="http://www.w3.org/2000/svg">
<rect x="1" y="0.5" width="84" height="84" stroke="#FFFCF5" stroke-opacity="0.25"/>
<path d="M30.4733 80.5001C37.4291 80.5001 43.0744 74.8254 43.0744 67.8334V55.1667H30.4733C23.5176 55.1667 17.8723 60.8414 17.8723 67.8334C17.8723 74.8254 23.5176 80.5001 30.4733 80.5001Z" fill="#0ACF83"/>
<path d="M17.8723 42.4999C17.8723 35.5079 23.5176 29.8333 30.4733 29.8333H43.0744V55.1666H30.4733C23.5176 55.1666 17.8723 49.4919 17.8723 42.4999Z" fill="#A259FF"/>
<path d="M17.8723 17.1667C17.8723 10.1747 23.5176 4.5 30.4733 4.5H43.0744V29.8333H30.4733C23.5176 29.8333 17.8723 24.1587 17.8723 17.1667Z" fill="#F24E1E"/>
<path d="M43.0745 4.5H55.6755C62.6313 4.5 68.2765 10.1747 68.2765 17.1667C68.2765 24.1587 62.6313 29.8333 55.6755 29.8333H43.0745V4.5Z" fill="#FF7262"/>
<path d="M68.2765 42.4999C68.2765 49.4919 62.6313 55.1666 55.6755 55.1666C48.7197 55.1666 43.0745 49.4919 43.0745 42.4999C43.0745 35.5079 48.7197 29.8333 55.6755 29.8333C62.6313 29.8333 68.2765 35.5079 68.2765 42.4999Z" fill="#1ABCFE"/>
</svg>
