<svg width="86" height="85" viewBox="0 0 86 85" fill="none" xmlns="http://www.w3.org/2000/svg">
<g clip-path="url(#clip0_971_231)">
<path d="M83.897 38.713L46.7852 1.60321C44.6492 -0.534077 41.1828 -0.534077 39.0442 1.60321L31.3377 9.30965L41.1137 19.0856C43.3855 18.318 45.9906 18.833 47.8015 20.6439C49.621 22.4664 50.1324 25.0938 49.3461 27.3728L58.7675 36.7945C61.0469 36.0093 63.6769 36.5173 65.4974 38.3408C68.0418 40.8842 68.0418 45.0063 65.4974 47.5514C62.9524 50.0967 58.8303 50.0967 56.2839 47.5514C54.3701 45.6355 53.8973 42.8249 54.8661 40.4671L46.0799 31.6809L46.0789 54.8026C46.7159 55.1175 47.2976 55.5335 47.8015 56.0344C50.3459 58.5778 50.3459 62.7003 47.8015 65.2473C45.2565 67.7913 41.1323 67.7913 38.591 65.2473C36.0466 62.7003 36.0466 58.5781 38.591 56.0348C39.2007 55.4247 39.9253 54.9416 40.7229 54.6133V31.2762C39.9242 30.9501 39.1991 30.4667 38.591 29.8548C36.6632 27.9296 36.1997 25.1011 37.1875 22.734L27.5506 13.0961L2.10371 38.5414C-0.0345704 40.6806 -0.0345704 44.1474 2.10371 46.285L39.2162 83.3955C41.3528 85.5331 44.8185 85.5331 46.9578 83.3955L83.8966 46.4573C86.0342 44.319 86.0346 40.8503 83.897 38.713Z" fill="#DE4C36"/>
</g>
<rect x="1" y="0.5" width="84" height="84" stroke="#FFFCF5" stroke-opacity="0.25"/>
<defs>
<clipPath id="clip0_971_231">
<rect x="0.5" width="85" height="85" fill="white"/>
</clipPath>
</defs>
</svg>
