<svg width="87" height="86" viewBox="0 0 87 86" fill="none" xmlns="http://www.w3.org/2000/svg">
<g clip-path="url(#clip0_971_173)">
<path d="M72.2227 0H14.7773C6.89218 0 0.5 6.39218 0.5 14.2773V69.5727C0.5 77.4578 6.89218 83.85 14.7773 83.85H72.2227C80.1078 83.85 86.5 77.4578 86.5 69.5727V14.2773C86.5 6.39218 80.1078 0 72.2227 0Z" fill="#330000"/>
<path d="M42.1745 50.32H28.8479L26.1362 58.743C26.0993 58.8966 26.0099 59.0326 25.8835 59.1274C25.7572 59.2222 25.6016 59.2699 25.4438 59.2623H18.6938C18.3092 59.2623 18.1745 59.0507 18.29 58.6274L29.8285 25.3972C29.9437 25.0511 30.0593 24.6571 30.1745 24.2147C30.3257 23.4447 30.4029 22.6626 30.4053 21.8782C30.3974 21.8233 30.4024 21.7674 30.42 21.7148C30.4375 21.6622 30.467 21.6144 30.5062 21.5752C30.5453 21.536 30.5931 21.5065 30.6457 21.4889C30.6983 21.4713 30.7542 21.4663 30.8091 21.4741H39.9822C40.2509 21.4741 40.4048 21.5705 40.4438 21.763L53.5396 58.6852C53.6552 59.0702 53.5396 59.2627 53.1936 59.2623H45.6935C45.5647 59.2766 45.4351 59.2435 45.3289 59.1692C45.2228 59.0949 45.1473 58.9845 45.1166 58.8586L42.1745 50.32ZM30.9246 43.051H40.04L39.91 42.622L39.7013 41.9428L39.5525 41.4657L39.315 40.7146L38.8101 39.1333L38.366 37.7314L37.2127 34.0798C36.9257 33.1721 36.6502 32.2607 36.3863 31.3459L36.1753 30.6035L35.9288 29.7257L35.5525 28.3652L35.482 28.1088H35.4245C35.1359 29.4936 34.7843 30.8645 34.371 32.2174L33.515 34.9707L33.0441 36.4918L32.5687 38.0318C32.4827 38.3099 32.3974 38.5851 32.3117 38.8568L32.0564 39.6624L31.8024 40.4492L31.5498 41.2165L31.2985 41.9646C31.2152 42.2108 31.1319 42.4537 31.0489 42.6936L30.9246 43.051ZM61.3273 27.5895C60.7389 27.6131 60.1521 27.5123 59.6054 27.2936C59.0586 27.0749 58.5642 26.7432 58.1544 26.3203C57.7457 25.8791 57.4282 25.3614 57.2203 24.797C57.0123 24.2327 56.918 23.6328 56.9427 23.0318C56.9217 22.4369 57.0265 21.8443 57.2502 21.2926C57.4739 20.741 57.8114 20.2427 58.2407 19.8303C59.0688 19.0354 60.1717 18.5905 61.3196 18.5884L61.4425 18.5897C62.8273 18.5897 63.914 19.0029 64.7025 19.83C65.1004 20.2597 65.4097 20.7637 65.6126 21.3131C65.8155 21.8626 65.9081 22.4466 65.885 23.0318C65.9092 23.6352 65.8118 24.2372 65.5988 24.8022C65.3857 25.3671 65.0613 25.8835 64.6447 26.3207C64.2241 26.7352 63.7249 27.0614 63.1763 27.2801C62.6278 27.4987 62.041 27.6054 61.4506 27.5939L61.3273 27.5895ZM57.3465 58.6852V31.1088C57.3465 30.7628 57.4996 30.5894 57.808 30.5894H64.9044C65.2118 30.5894 65.3656 30.7624 65.366 31.1088V58.6852C65.366 59.0702 65.2121 59.2627 64.9044 59.2623H57.8658C57.5379 59.2623 57.3653 59.0897 57.3481 58.7443L57.3465 58.6852Z" fill="#FF9A00"/>
</g>
<rect x="1" y="0.5" width="85" height="85" stroke="#FFFCF5" stroke-opacity="0.25"/>
<defs>
<clipPath id="clip0_971_173">
<rect x="0.5" width="86" height="86" fill="white"/>
</clipPath>
</defs>
</svg>
