<svg width="86" height="85" viewBox="0 0 86 85" fill="none" xmlns="http://www.w3.org/2000/svg">
<g clip-path="url(#clip0_971_225)">
<path d="M0.5 0H85.5V85H0.5V0Z" fill="#F7DF1E"/>
<path d="M22.8495 71.0321L29.3539 67.0955C30.609 69.3205 31.7505 71.2031 34.4888 71.2031C37.1135 71.2031 38.7687 70.1764 38.7687 66.1828V39.0233H46.7564V66.2957C46.7564 74.5689 41.9067 78.3348 34.8311 78.3348C28.4412 78.3348 24.7321 75.0254 22.8491 71.0314M51.095 70.1761L57.5988 66.4105C59.3111 69.2066 61.5364 71.2605 65.473 71.2605C68.783 71.2605 70.8934 69.6057 70.8934 67.3233C70.8934 64.5847 68.7252 63.6145 65.0735 62.0174L63.077 61.1608C57.314 58.7081 53.4913 55.6268 53.4913 49.1223C53.4913 43.1312 58.0557 38.5664 65.1881 38.5664C70.2662 38.5664 73.9179 40.3355 76.5422 44.957L70.3226 48.9513C68.953 46.498 67.4701 45.5281 65.1878 45.5281C62.8483 45.5281 61.3647 47.0116 61.3647 48.9513C61.3647 51.3476 62.8483 52.3181 66.2715 53.8017L68.2683 54.6573C75.0584 57.5676 78.8811 60.5343 78.8811 67.2094C78.8811 74.3992 73.2325 78.3358 65.644 78.3358C58.2267 78.3358 53.4339 74.7983 51.0947 70.1764" fill="black"/>
</g>
<rect x="1" y="0.5" width="84" height="84" stroke="#FFFCF5" stroke-opacity="0.25"/>
<defs>
<clipPath id="clip0_971_225">
<rect x="0.5" width="85" height="85" fill="white"/>
</clipPath>
</defs>
</svg>
