<svg width="85" height="85" viewBox="0 0 85 85" fill="none" xmlns="http://www.w3.org/2000/svg">
<rect x="0.5" y="0.5" width="84" height="84" stroke="#FFFCF5" stroke-opacity="0.25"/>
<path d="M70.8887 0H14.1113C6.31786 0 0 6.31786 0 14.1113V68.7637C0 76.5572 6.31786 82.875 14.1113 82.875H70.8887C78.6821 82.875 85 76.5572 85 68.7637V14.1113C85 6.31786 78.6821 0 70.8887 0Z" fill="#001E36"/>
<path d="M19.1396 58.1171V21.6807C19.1396 21.4151 19.2539 21.2816 19.482 21.2816L19.8429 21.2806L20.4598 21.274L21.3171 21.257L24.1892 21.1963L27.2688 21.1391C28.3519 21.1206 29.4256 21.1106 30.4901 21.1106C33.3788 21.1106 35.8116 21.4718 37.7888 22.194C39.5724 22.7973 41.199 23.7907 42.5502 25.1019C43.6956 26.2386 44.5808 27.6102 45.1447 29.1222C45.6781 30.5935 45.9484 32.1472 45.9432 33.7122C45.9432 36.7539 45.2396 39.2627 43.8331 41.239C42.4575 43.167 40.5386 44.6415 38.3214 45.4744L38.1312 45.5441C35.8159 46.4077 33.252 46.7198 30.44 46.7394L30.003 46.7408L29.3546 46.7374L29.0275 46.7328L28.663 46.7241L28.4432 46.7155L28.3097 46.7085L27.9813 46.6966L27.5799 46.6883L26.9756 46.684L26.8411 46.6836V58.06C26.8511 58.1298 26.8447 58.2009 26.8225 58.2677C26.8002 58.3345 26.7627 58.3953 26.7129 58.4451C26.663 58.4949 26.6023 58.5324 26.5355 58.5547C26.4686 58.577 26.3975 58.5833 26.3278 58.5733H19.5391C19.2725 58.5733 19.1396 58.4219 19.1396 58.1171ZM26.8414 28.1241V40.0082C27.2965 40.0449 27.7529 40.0639 28.2094 40.0653H30.0914C31.3889 40.0609 32.6788 39.8677 33.9207 39.4918L34.1684 39.4145C35.2982 39.0789 36.3077 38.4257 37.0766 37.5325C37.7912 36.6898 38.1614 35.5287 38.187 34.0489L38.1886 33.8832C38.2185 32.7802 37.9316 31.6918 37.3615 30.7471C36.7624 29.8336 35.8963 29.1267 34.8812 28.7227C33.5558 28.2076 32.1399 27.9652 30.7186 28.0102L29.9954 28.0122L29.5392 28.0162L29.1039 28.0218L28.4896 28.0338L28.0414 28.0464L27.8087 28.055L27.4975 28.0696L27.2326 28.0859L27.0815 28.0979L26.951 28.1105L26.8936 28.1171L26.8414 28.1241ZM67.9901 37.8473C66.9954 37.3361 65.9403 36.9522 64.8497 36.7044L64.5974 36.65C63.3976 36.3747 62.1728 36.223 60.9421 36.1974L60.6346 36.1938C59.9131 36.1742 59.1927 36.2607 58.4963 36.4504C58.053 36.549 57.6589 36.8015 57.384 37.163C57.1982 37.4522 57.0993 37.7887 57.0991 38.1325C57.1095 38.4659 57.2298 38.7865 57.4411 39.0446C57.7437 39.3985 58.1076 39.6951 58.5152 39.9202L58.6388 39.9856C59.4517 40.4233 60.2894 40.8136 61.1476 41.1543C63.0613 41.795 64.8898 42.6662 66.5929 43.7488C67.7533 44.4811 68.7135 45.4903 69.3873 46.6856C69.9537 47.8173 70.2374 49.0694 70.214 50.3347C70.2481 52.0057 69.7706 53.6472 68.8454 55.0392C67.8549 56.452 66.4793 57.5503 64.8823 58.2035C63.2098 58.9386 61.1559 59.3181 58.7208 59.343L58.4678 59.3443C56.9582 59.3596 55.4507 59.2275 53.9667 58.9499L53.6493 58.8881C52.3999 58.659 51.1837 58.2759 50.0285 57.7476C49.9124 57.6876 49.8143 57.598 49.7442 57.4877C49.6741 57.3775 49.6345 57.2506 49.6294 57.12V50.9051C49.6226 50.8448 49.6323 50.7837 49.6574 50.7284C49.6825 50.6732 49.7222 50.6258 49.7722 50.5913C49.8211 50.5636 49.8774 50.5516 49.9334 50.5567C49.9894 50.5618 50.0425 50.5838 50.0856 50.6199C51.4498 51.4243 52.9311 52.0111 54.4761 52.359C55.8379 52.7005 57.2349 52.8823 58.6388 52.9009C59.9689 52.9009 60.9477 52.7296 61.5752 52.3876C61.8586 52.2579 62.0983 52.0488 62.2653 51.7857C62.4323 51.5226 62.5195 51.2167 62.5162 50.9051C62.5162 50.4117 62.231 49.9362 61.6609 49.4797C61.4218 49.2884 61.0788 49.0802 60.6326 48.8555L60.4191 48.7505L60.1913 48.6433L60.0718 48.5888L59.8214 48.4779C59.778 48.459 59.7345 48.4402 59.691 48.4215L59.4187 48.3073L59.2769 48.2492L58.9827 48.1313L58.83 48.0715L58.5136 47.9497L58.1825 47.8258C56.3921 47.2027 54.6944 46.3395 53.136 45.2599C52.0214 44.4847 51.1037 43.4595 50.4562 42.2663C49.8954 41.1427 49.6119 39.9011 49.6294 38.6455C49.6262 37.1368 50.0406 35.6567 50.8267 34.3689C51.7232 32.9512 53.0102 31.8223 54.5332 31.119C56.2056 30.2833 58.2961 29.8649 60.8053 29.8643C62.2748 29.8525 63.7431 29.9574 65.196 30.178C66.2482 30.3115 67.2768 30.5897 68.2527 31.0048C68.4098 31.0499 68.5363 31.1658 68.5947 31.3186C68.6336 31.4577 68.6525 31.6015 68.6518 31.7462V37.5053C68.6601 37.6414 68.5947 37.7719 68.4808 37.8473C68.4046 37.8852 68.3206 37.9049 68.2355 37.9049C68.1503 37.9049 68.0663 37.8852 67.9901 37.8473Z" fill="#31A8FF"/>
</svg>
