<svg width="86" height="86" viewBox="0 0 86 86" fill="none" xmlns="http://www.w3.org/2000/svg">
<g clip-path="url(#clip0_971_186)">
<path d="M15.552 0.5H70.448C78.7707 0.5 85.5 7.22928 85.5 15.552V68.323C85.5 76.6457 78.7707 83.375 70.448 83.375H15.552C7.22928 83.375 0.5 76.6457 0.5 68.323V15.552C0.5 7.22928 7.22928 0.5 15.552 0.5Z" fill="#00005B"/>
<path d="M20.6875 58.6187V22.175C20.6875 21.9269 20.7938 21.7855 21.0418 21.7855L21.5558 21.7845L21.9535 21.7812L22.2341 21.7759L22.5329 21.7682L22.854 21.7569L23.025 21.75C23.3437 21.7367 23.6675 21.7284 23.9979 21.7214L25.0122 21.7002C25.1274 21.6975 25.244 21.6945 25.3612 21.6909L25.7164 21.6792C26.0352 21.6673 26.3619 21.6593 26.6966 21.6527L27.7236 21.6344L28.4345 21.6188L28.798 21.6082C29.5298 21.585 30.246 21.577 30.9569 21.5743L32.0207 21.573C34.925 21.573 37.3332 21.9269 39.3168 22.6707C41.0947 23.2745 42.7158 24.2666 44.0625 25.575C45.2038 26.7199 46.0855 28.0969 46.648 29.6125C47.1793 31.1 47.4625 32.623 47.4625 34.2167C47.4625 37.2625 46.7543 39.7769 45.3375 41.7605C43.9207 43.7437 41.9375 45.2312 39.6355 46.0812C37.3073 46.9372 34.7477 47.2633 31.9563 47.2842H30.9439L30.5498 47.2802L30.2971 47.2742L30.1484 47.2679L30.0149 47.2599L29.8957 47.25C29.8193 47.2425 29.7427 47.2368 29.666 47.2327L29.4933 47.2251L29.304 47.2201L28.9883 47.2158L28.373 47.2144V58.5832C28.4082 58.8312 28.2313 59.0437 27.9832 59.0793H21.1125C20.8293 59.0793 20.6875 58.9375 20.6875 58.6187ZM28.4082 28.6207V40.5207L28.8246 40.5506C29.1457 40.5751 29.4675 40.5889 29.7895 40.5917H31.6668C33.048 40.5917 34.4293 40.3792 35.7395 39.9542C36.873 39.6355 37.8645 38.9625 38.6437 38.0769C39.3875 37.1917 39.7418 35.9875 39.7418 34.4292C39.7751 33.3224 39.4925 32.229 38.927 31.2769C38.3502 30.3947 37.5454 29.7074 36.5755 29.3087L36.448 29.2582C35.1375 28.7269 33.7207 28.5144 32.2688 28.55L31.45 28.551L31.0651 28.5533L30.6976 28.5583L30.3486 28.5662C30.1786 28.5709 30.0156 28.5772 29.8605 28.5855C29.7844 28.5817 29.7083 28.5786 29.6321 28.5762L29.4199 28.5716C29.3867 28.5712 29.3535 28.571 29.3203 28.5709L29.1324 28.5719L28.9617 28.5765L28.8827 28.5799L28.7376 28.5882L28.6101 28.5981L28.5527 28.6034L28.4521 28.615L28.4082 28.6207ZM52.4207 30.675H58.6187C58.9531 30.675 59.2247 30.8961 59.3432 31.1893L59.3625 31.2417C59.4687 31.525 59.5395 31.8082 59.575 32.1269C59.6457 32.4812 59.7168 32.8707 59.752 33.225L59.7819 33.5676C59.8051 33.8601 59.823 34.1713 59.823 34.5C60.8373 33.3157 62.0537 32.3209 63.4156 31.5618L63.6125 31.4542C65.2418 30.5332 67.1187 30.073 68.9957 30.073C69.2437 30.0375 69.4562 30.2144 69.4918 30.4625V37.5105C69.4918 37.7937 69.3145 37.9 68.925 37.9C67.735 37.8668 66.5145 37.9574 65.349 38.1998L65.1 38.2542C64.073 38.4667 63.0813 38.7855 62.125 39.2105C61.452 39.5292 60.8145 39.9542 60.3188 40.5207V58.5832C60.3188 58.9375 60.177 59.0793 59.8582 59.0793H52.8812C52.598 59.1144 52.35 58.9375 52.3145 58.6543V38.8917C52.3145 38.0417 52.3145 37.1562 52.2793 36.2355L52.258 35.5449L52.2295 34.1636C52.2238 33.9332 52.2172 33.7031 52.2082 33.473C52.2082 32.6582 52.1375 31.8792 52.0668 31.0644C52.0313 30.8875 52.1375 30.7105 52.3145 30.675C52.3145 30.6448 52.3666 30.6404 52.4038 30.6617L52.4207 30.675Z" fill="#9999FF"/>
</g>
<rect x="1" y="1" width="84" height="84" stroke="#FFFCF5" stroke-opacity="0.25"/>
<defs>
<clipPath id="clip0_971_186">
<rect x="0.5" y="0.5" width="85" height="85" fill="white"/>
</clipPath>
</defs>
</svg>
