<svg width="86" height="85" viewBox="0 0 86 85" fill="none" xmlns="http://www.w3.org/2000/svg">
<g clip-path="url(#clip0_971_223)">
<path d="M70.3869 24.5118C69.4823 24.2015 68.5701 23.9139 67.651 23.6495C67.8054 23.0187 67.9475 22.3954 68.0737 21.7832C70.1449 11.7289 68.7909 3.62904 64.166 0.962169C59.7317 -1.59447 52.4798 1.07141 45.1559 7.44541C44.4341 8.07472 43.7283 8.72217 43.0392 9.38713C42.5779 8.94495 42.1084 8.51135 41.631 8.08656C33.9551 1.27129 26.2613 -1.60111 21.6414 1.0734C17.2111 3.63801 15.8993 11.2525 17.764 20.7811C17.9495 21.7248 18.1589 22.6637 18.3922 23.5967C17.3031 23.9062 16.2522 24.2356 15.2465 24.5862C6.24713 27.7239 0.5 32.6409 0.5 37.7413C0.5 43.0089 6.6698 48.2926 16.043 51.4963C16.803 51.755 17.5692 51.9947 18.341 52.2152C18.0904 53.2201 17.8678 54.2319 17.6737 55.2493C15.896 64.6126 17.2842 72.0471 21.7025 74.5954C26.266 77.2271 33.9253 74.5224 41.383 68.0029C41.9877 67.4729 42.5792 66.9279 43.1567 66.3683C43.903 67.0884 44.6692 67.7875 45.4544 68.4648C52.6787 74.6811 59.8134 77.1912 64.2274 74.6359C68.7865 71.9966 70.2684 64.0099 68.3446 54.293C68.1931 53.5318 68.0231 52.7743 67.8349 52.0213C68.3728 51.8619 68.9008 51.6979 69.4154 51.5272C79.1599 48.2989 85.5 43.0793 85.5 37.7413C85.5 32.6223 79.5673 27.6721 70.3869 24.5118ZM68.2736 48.0807C67.8087 48.2345 67.3319 48.3829 66.8458 48.5273C65.77 45.1217 64.3184 41.5005 62.5417 37.7589C64.237 34.1065 65.6329 30.5315 66.6785 27.1481C67.5481 27.3998 68.3918 27.6651 69.2052 27.945C77.0711 30.6531 81.8689 34.6564 81.8689 37.7413C81.8689 41.027 76.6872 45.2927 68.2736 48.0807ZM64.7826 54.9983C65.6332 59.2947 65.7544 63.1795 65.191 66.2166C64.685 68.9456 63.667 70.7648 62.4079 71.4936C59.7294 73.0442 54.0009 71.0287 47.8228 65.7122C47.0924 65.0825 46.3797 64.4326 45.6855 63.7632C48.0807 61.1438 50.4744 58.0988 52.8105 54.7167C56.9197 54.3521 60.8019 53.7558 64.3224 52.942C64.492 53.6237 64.6454 54.3093 64.7826 54.9983ZM29.4784 71.2256C26.8613 72.1497 24.7768 72.1762 23.5167 71.4497C20.8356 69.9035 19.721 63.9339 21.2413 55.9266C21.4221 54.9804 21.629 54.0394 21.8619 53.1047C25.3436 53.875 29.1975 54.4288 33.3163 54.7628C35.6684 58.0722 38.1311 61.1139 40.613 63.7775C40.0856 64.2879 39.5456 64.7852 38.9937 65.269C35.6956 68.1517 32.3909 70.197 29.4784 71.2256ZM17.2178 48.0605C13.073 46.6437 9.65012 44.8026 7.30398 42.7935C5.19559 40.9882 4.13143 39.1956 4.13143 37.7413C4.13143 34.6461 8.74566 30.6982 16.4418 28.0151C17.3758 27.6897 18.3533 27.3826 19.3677 27.0944C20.4315 30.5541 21.8267 34.1716 23.5104 37.8296C21.8048 41.5417 20.3897 45.217 19.3155 48.7176C18.611 48.5157 17.9115 48.2966 17.2178 48.0605ZM21.3277 20.0835C19.7303 11.9199 20.7911 5.76168 23.461 4.21607C26.3045 2.56986 32.5925 4.91699 39.2202 10.8019C39.6523 11.1865 40.0775 11.5789 40.4955 11.979C38.0258 14.6309 35.5857 17.6501 33.2546 20.9398C29.2569 21.3104 25.4302 21.9054 21.912 22.7026C21.6953 21.8347 21.5004 20.9612 21.3277 20.0835ZM57.9929 29.1377C57.1619 27.7023 56.3001 26.285 55.408 24.8867C58.12 25.2297 60.7185 25.6849 63.1586 26.2414C62.4262 28.5895 61.5131 31.0442 60.4383 33.561C59.6527 32.0704 58.8374 30.5957 57.9929 29.1377ZM43.0408 14.5745C44.7156 16.389 46.393 18.4147 48.0429 20.6128C44.696 20.4547 41.3436 20.454 37.9966 20.6108C39.6481 18.433 41.3398 16.4099 43.0408 14.5745ZM27.9929 29.1622C27.1589 30.6085 26.3588 32.0741 25.5933 33.5577C24.5361 31.0498 23.6313 28.5838 22.8925 26.2025C25.3177 25.66 27.9039 25.2164 30.5986 24.8797C29.6966 26.2865 28.8278 27.7146 27.9929 29.1622ZM30.676 50.8612C27.8919 50.5504 25.2669 50.1297 22.8424 49.6018C23.5928 47.1779 24.5175 44.6595 25.5976 42.0978C26.3662 43.5826 27.1696 45.049 28.0071 46.4959C28.8684 47.9834 29.7603 49.4404 30.676 50.8612ZM43.1411 61.1641C41.4199 59.3074 39.7033 57.2531 38.0268 55.0438C39.6545 55.1075 41.3136 55.14 43 55.14C44.7325 55.14 46.4452 55.1012 48.1309 55.0261C46.4757 57.2753 44.8046 59.3326 43.1411 61.1641ZM60.4725 41.967C61.6087 44.5569 62.5663 47.062 63.3266 49.4444C60.8623 50.0068 58.2014 50.4597 55.3977 50.7961C56.2961 49.3718 57.1661 47.9299 58.0071 46.471C58.8622 44.9882 59.6842 43.4865 60.4725 41.967ZM54.8618 44.6568C53.5743 46.8935 52.2143 49.0877 50.7841 51.236C48.1935 51.4195 45.5971 51.5106 43 51.5093C40.3547 51.5093 37.7818 51.4269 35.3042 51.2662C33.8367 49.1229 32.4508 46.9248 31.1495 44.6767C29.8543 42.4405 28.6448 40.156 27.523 37.8279C28.642 35.4994 29.8481 33.2137 31.1388 30.9758L31.1385 30.9761C32.4288 28.7376 33.8036 26.549 35.26 24.4149C37.7878 24.2236 40.3799 24.124 42.9997 24.124C45.6313 24.124 48.2272 24.2246 50.7543 24.4172C52.196 26.5481 53.562 28.7293 54.8499 30.9565C56.1449 33.1895 57.367 35.464 58.5142 37.7765C57.3788 40.1125 56.1606 42.4075 54.8618 44.6568ZM62.3524 4.10783C65.1986 5.74939 66.3056 12.3691 64.5173 21.0501C64.4031 21.6039 64.2749 22.168 64.1354 22.7401C60.6086 21.926 56.7793 21.3207 52.77 20.9445C50.4345 17.6185 48.0143 14.5947 45.5849 11.977C46.2216 11.3632 46.8734 10.7654 47.5399 10.184C53.8153 4.72309 59.6803 2.56688 62.3524 4.10783ZM43 30.151C47.1919 30.151 50.5902 33.5494 50.5902 37.7413C50.5902 41.9332 47.1919 45.3315 43 45.3315C38.8081 45.3315 35.4098 41.9332 35.4098 37.7413C35.4098 33.5494 38.8081 30.151 43 30.151Z" fill="#00D8FF"/>
</g>
<rect x="1" y="0.5" width="84" height="84" stroke="#FFFCF5" stroke-opacity="0.25"/>
<defs>
<clipPath id="clip0_971_223">
<rect x="0.5" width="85" height="85" fill="white"/>
</clipPath>
</defs>
</svg>
