<svg width="86" height="85" viewBox="0 0 86 85" fill="none" xmlns="http://www.w3.org/2000/svg">
<g clip-path="url(#clip0_971_203)">
<path d="M43.166 16.9336C31.8328 16.9336 24.7492 22.6004 21.916 33.9336C26.166 28.2668 31.1242 26.1418 36.791 27.5586C40.024 28.3668 42.3349 30.7126 44.8929 33.3087C49.0599 37.5385 53.8823 42.4336 64.416 42.4336C75.7492 42.4336 82.8328 36.7668 85.666 25.4336C81.416 31.1004 76.4578 33.2254 70.791 31.8086C67.558 31.0004 65.2471 28.6546 62.6891 26.0585C58.5221 21.8287 53.6997 16.9336 43.166 16.9336ZM21.916 42.4336C10.5828 42.4336 3.49924 48.1004 0.666016 59.4336C4.91602 53.7668 9.87424 51.6418 15.541 53.0586C18.774 53.8668 21.0849 56.2126 23.6429 58.8087C27.8099 63.0385 32.6323 67.9336 43.166 67.9336C54.4992 67.9336 61.5828 62.2668 64.416 50.9336C60.166 56.6004 55.2078 58.7254 49.541 57.3086C46.308 56.5004 43.9971 54.1546 41.4391 51.5585C37.2721 47.3287 32.4497 42.4336 21.916 42.4336Z" fill="url(#paint0_linear_971_203)"/>
</g>
<rect x="1" y="0.5" width="84" height="84" stroke="#FFFCF5" stroke-opacity="0.25"/>
<defs>
<linearGradient id="paint0_linear_971_203" x1="-235.464" y1="1648.93" x2="7105.67" y2="5881.7" gradientUnits="userSpaceOnUse">
<stop stop-color="#2298BD"/>
<stop offset="1" stop-color="#0ED7B5"/>
</linearGradient>
<clipPath id="clip0_971_203">
<rect x="0.5" width="85" height="85" fill="white"/>
</clipPath>
</defs>
</svg>
