<svg width="86" height="85" viewBox="0 0 86 85" fill="none" xmlns="http://www.w3.org/2000/svg">
<g clip-path="url(#clip0_971_228)">
<path d="M7.14062 0H78.8594C82.527 0 85.5 2.97301 85.5 6.64062V78.3594C85.5 82.027 82.527 85 78.8594 85H7.14062C3.47301 85 0.5 82.027 0.5 78.3594V6.64062C0.5 2.97301 3.47301 0 7.14062 0Z" fill="#3178C6"/>
<path d="M50.4767 66.564V75.7347C51.9682 76.499 53.7322 77.0721 55.7686 77.4543C57.8049 77.8364 59.9512 78.0273 62.2077 78.0273C64.4064 78.0273 66.4955 77.8172 68.4744 77.3968C70.4533 76.9765 72.1889 76.2838 73.68 75.3193C75.1715 74.3544 76.3522 73.0934 77.2225 71.5361C78.0924 69.9792 78.5273 68.0545 78.5273 65.7618C78.5273 64.0996 78.2787 62.6427 77.7816 61.3912C77.29 60.1483 76.5591 59.014 75.6304 58.0527C74.6937 57.0782 73.5701 56.2043 72.2606 55.4303C70.9507 54.6567 69.4735 53.9259 67.829 53.2382C66.6244 52.7412 65.5443 52.2591 64.588 51.7909C63.6321 51.3227 62.8193 50.8453 62.1502 50.3579C61.4809 49.8708 60.9646 49.3548 60.6013 48.8103C60.2381 48.2657 60.0564 47.6498 60.0564 46.9618C60.0564 46.3313 60.2188 45.7632 60.5439 45.2569C60.8689 44.7505 61.3281 44.3159 61.9208 43.953C62.5135 43.5897 63.24 43.3082 64.1006 43.1073C64.9609 42.9067 65.9171 42.8065 66.9687 42.8065C67.7337 42.8065 68.5415 42.8639 69.3922 42.9785C70.2432 43.093 71.0988 43.2696 71.9594 43.5087C72.8173 43.7465 73.6562 44.0483 74.4689 44.4115C75.257 44.7607 76.0108 45.1828 76.7204 45.6722V37.1035C75.3246 36.5686 73.7996 36.1721 72.1457 35.9142C70.4919 35.6562 68.594 35.5273 66.4524 35.5273C64.2726 35.5273 62.2077 35.7614 60.2573 36.2296C58.307 36.6974 56.5907 37.4282 55.1088 38.4217C53.627 39.4154 52.4559 40.6811 51.5953 42.2191C50.735 43.7571 50.3047 45.5959 50.3047 47.7358C50.3047 50.4678 51.0933 52.7986 52.6711 54.7284C54.2486 56.6578 56.6432 58.2914 59.8556 59.6288C61.0414 60.1118 62.2176 60.6182 63.3834 61.1479C64.4735 61.6446 65.4151 62.1602 66.2087 62.6951C67.0022 63.23 67.6284 63.8128 68.0873 64.4433C68.5462 65.0738 68.7756 65.7903 68.7756 66.5929C68.7794 67.1704 68.631 67.7388 68.3453 68.2407C68.0587 68.7467 67.6234 69.1863 67.0404 69.5589C66.4573 69.9314 65.7305 70.2226 64.8606 70.4328C63.9907 70.643 62.9723 70.7482 61.8059 70.7482C59.8174 70.7482 57.8481 70.3996 55.8978 69.702C53.9471 69.0047 52.1402 67.9588 50.4767 66.564ZM35.1913 43.7425H46.9844V36.1914H14.1133V43.7425H25.8489V77.3633H35.1913V43.7425Z" fill="white"/>
</g>
<rect x="1" y="0.5" width="84" height="84" stroke="#FFFCF5" stroke-opacity="0.25"/>
<defs>
<clipPath id="clip0_971_228">
<rect x="0.5" width="85" height="85" fill="white"/>
</clipPath>
</defs>
</svg>
