<svg width="16" height="17" viewBox="0 0 16 17" fill="none" xmlns="http://www.w3.org/2000/svg">
<path d="M3.33333 14.5C2.96667 14.5 2.65289 14.3696 2.392 14.1087C2.13111 13.8478 2.00044 13.5338 2 13.1667V3.83333C2 3.46667 2.13067 3.15289 2.392 2.892C2.65333 2.63111 2.96711 2.50044 3.33333 2.5H12.6667C13.0333 2.5 13.3473 2.63067 13.6087 2.892C13.87 3.15333 14.0004 3.46711 14 3.83333V13.1667C14 13.5333 13.8696 13.8473 13.6087 14.1087C13.3478 14.37 13.0338 14.5004 12.6667 14.5H3.33333ZM3.33333 13.1667H12.6667V5.83333H3.33333V13.1667Z" fill="#FFFCF5"/>
</svg>
