<svg width="69" height="69" viewBox="0 0 69 69" fill="none" xmlns="http://www.w3.org/2000/svg">
<rect width="69" height="69" rx="12" fill="#10003D"/>
<path d="M64.9747 38.2891V42.4844C64.3601 42.7422 62.9096 43 61.8033 43C56.5421 43 52.4609 39.2266 52.4609 34.0469C52.4609 28.375 56.8125 25 61.9999 25C63.18 25 64.0405 25.1641 64.9993 25.5156V29.6641C64.1388 29.1953 63.2538 28.8906 61.9754 28.8906C59.9348 28.8906 58.2876 30.0391 57.5009 31.9141H64.7781V35.8047H57.4271C58.1647 37.9141 59.9102 39.1094 61.9999 39.1094C63.2538 39.1094 64.1634 38.8281 64.9747 38.2891Z" fill="white"/>
<path d="M50.91 42.6719H45.5996L41.3956 37.0703H41.3464V42.6719H36.8965V25.3281H42.8461C44.7391 25.3281 46.1896 25.5625 47.1485 25.9609C49.1153 26.8047 50.492 28.8437 50.492 31.3047C50.492 34.0469 48.7711 36.2969 45.9684 36.7656L50.91 42.6719ZM41.3464 34.0469H43.0673C44.9112 34.0469 46.0421 33.2266 46.0421 31.5625C46.0421 30.0625 44.862 29.2187 43.1165 29.2187H41.3464V34.0469Z" fill="white"/>
<path d="M33.5924 42.6719H28.9459V32.3359H28.8967L21.2999 42.6719H17.44V32.3359H17.3909L10.335 42.6719H5L17.4892 25.3281H22.0866V34.8672H22.1358L28.995 25.3281H33.5924V42.6719Z" fill="white"/>
</svg>
