<svg width="320" height="320" viewBox="0 0 320 320" fill="none" xmlns="http://www.w3.org/2000/svg">
<rect width="320" height="320" rx="32" fill="url(#paint0_radial_1252_274)"/>
<path d="M160.249 88.6328C172.3 88.6328 182.469 91.3971 190.755 96.9258C199.04 102.454 205.443 109.617 209.962 118.412C214.481 127.208 217.243 136.506 218.247 146.307H101.874C102.627 137.26 105.263 128.339 109.783 119.543C114.302 110.747 120.83 103.46 129.366 97.6797C137.903 91.6484 148.197 88.6328 160.249 88.6328ZM219.001 165.908C218.499 176.463 216.364 186.641 212.598 196.441C208.581 205.991 202.304 214.033 193.768 220.566C184.98 227.1 173.807 230.367 160.249 230.367C145.937 230.367 134.388 226.849 125.6 219.812C116.562 212.776 109.908 202.724 105.64 189.656H75.5106C80.03 208.001 89.0687 223.708 102.627 236.775C116.185 249.592 135.267 256 159.872 256C179.958 256 196.655 251.351 209.962 242.053C223.018 232.503 232.684 220.315 238.961 205.488C244.987 190.661 248 175.206 248 159.123C248 143.04 244.987 127.71 238.961 113.135C232.684 98.5592 223.018 86.6224 209.962 77.3242C196.655 67.7747 179.958 63 159.872 63C140.037 63 123.466 67.6491 110.159 76.9473C96.601 86.2454 86.6835 98.6849 80.4066 114.266C74.1297 129.846 71.3678 147.061 72.1211 165.908H219.001Z" fill="url(#paint1_linear_1252_274)"/>
<defs>
<radialGradient id="paint0_radial_1252_274" cx="0" cy="0" r="1" gradientUnits="userSpaceOnUse" gradientTransform="translate(331.5 -38.5) rotate(132.341) scale(541.166)">
<stop stop-color="#FE8E55"/>
<stop offset="1" stop-color="#9E2601"/>
</radialGradient>
<linearGradient id="paint1_linear_1252_274" x1="219.5" y1="51" x2="105.5" y2="279" gradientUnits="userSpaceOnUse">
<stop stop-color="#FFFCF5"/>
<stop offset="1" stop-color="#FFC1AC"/>
</linearGradient>
</defs>
</svg>
