<svg width="121" height="132" viewBox="0 0 121 132" fill="none" xmlns="http://www.w3.org/2000/svg">
<path d="M61.0115 17.4612C69.2285 17.4612 76.1616 19.3443 81.8108 23.1104C87.4601 26.8766 91.8254 31.7554 94.9068 37.747C97.9881 43.7386 99.8712 50.0726 100.556 56.7489H21.2102C21.7237 50.5862 23.5212 44.509 26.6026 38.5174C29.684 32.5258 34.1349 27.5613 39.9553 23.624C45.7757 19.5155 52.7944 17.4612 61.0115 17.4612ZM101.07 70.1016C100.727 77.2916 99.2721 84.2247 96.7042 90.901C93.9652 97.4062 89.6855 102.884 83.8651 107.335C77.8735 111.786 70.2556 114.011 61.0115 114.011C51.2537 114.011 43.3791 111.615 37.3875 106.822C31.2247 102.028 26.6882 95.1807 23.778 86.2789H3.23538C6.31677 98.7757 12.4796 109.475 21.7237 118.377C30.9679 127.107 43.9782 131.473 60.7547 131.473C74.4497 131.473 85.8338 128.306 94.9068 121.972C103.809 115.467 110.399 107.164 114.679 97.0638C118.788 86.9637 120.842 76.4356 120.842 65.4796C120.842 54.5235 118.788 44.081 114.679 34.1521C110.399 24.2232 103.809 16.0917 94.9068 9.75773C85.8338 3.25258 74.4497 0 60.7547 0C47.2308 0 35.9324 3.16698 26.8594 9.50095C17.6152 15.8349 10.8533 24.3087 6.57355 34.9224C2.29384 45.5361 0.41077 57.2625 0.924338 70.1016H101.07Z" fill="url(#paint0_linear_1222_163)"/>
<defs>
<linearGradient id="paint0_linear_1222_163" x1="174" y1="-33.5" x2="-43" y2="189" gradientUnits="userSpaceOnUse">
<stop stop-color="#FE8D55"/>
<stop offset="1" stop-color="#9D2600"/>
</linearGradient>
</defs>
</svg>
