<svg width="64" height="64" viewBox="0 0 64 64" fill="none" xmlns="http://www.w3.org/2000/svg">
<rect width="64" height="64" rx="6" fill="#27331F"/>
<path d="M25.9757 37.7226L33.1058 39.6181L22.2126 54.3934H13.0028L25.9757 37.7226Z" fill="#EDEDFF"/>
<path d="M33.6558 27.006L26.7583 29.34L27.4113 11.0358L34.9511 5.97893L33.6558 27.006Z" fill="#EDEDFF"/>
<path d="M38.3511 32.9858L34.3158 26.9244L52.1684 22.8309L58.9999 28.81L38.3511 32.9858Z" fill="#EDEDFF"/>
<path d="M33.6559 39.3264L38.449 33.8447L47.0747 50.0023L43.0933 58.1612L33.6559 39.3264Z" fill="#EDEDFF"/>
<path d="M26.0695 29.6714L25.6971 36.9436L8.92203 29.5904L6.99999 20.7177L26.0695 29.6714Z" fill="#EDEDFF"/>
<path d="M30.1581 29.0083L35.8694 34.7197L28.0676 36.8102L30.1581 29.0083Z" fill="#4F9E1A"/>
</svg>
