<svg width="152" height="41" viewBox="0 0 152 41" fill="none" xmlns="http://www.w3.org/2000/svg">
<path d="M14.5967 24.4182L20.0814 25.8762L11.702 37.2419H4.61753L14.5967 24.4182Z" fill="#EDEDFF"/>
<path d="M20.5045 16.1746L15.1987 17.97L15.701 3.88984L21.5008 -2.30297e-05L20.5045 16.1746Z" fill="#EDEDFF"/>
<path d="M24.1162 20.7745L21.0122 16.1119L34.7449 12.963L40 17.5623L24.1162 20.7745Z" fill="#EDEDFF"/>
<path d="M20.5045 25.6519L24.1916 21.4352L30.8267 33.8641L27.7641 40.1402L20.5045 25.6519Z" fill="#EDEDFF"/>
<path d="M14.6688 18.2249L14.3824 23.8189L1.4785 18.1626L1.46724e-05 11.3375L14.6688 18.2249Z" fill="#EDEDFF"/>
<path d="M17.8139 17.7149L22.2072 22.1082L16.2058 23.7163L17.8139 17.7149Z" fill="#4F9E1A"/>
<path d="M109.683 21.8848L104.426 14.8846L109.655 8.30604H113.9L107.772 15.728L107.912 13.9287L114.181 21.8848H109.683ZM101.024 21.8848V1.55884H104.707V21.8848H101.024Z" fill="#EDEDFF"/>
<path d="M93.5972 22.1659C92.2103 22.1659 90.9639 21.8567 89.8581 21.2382C88.7523 20.6197 87.8808 19.7763 87.2436 18.708C86.6063 17.6397 86.2877 16.4402 86.2877 15.1095C86.2877 13.76 86.6063 12.5512 87.2436 11.4829C87.8808 10.4145 88.7523 9.57114 89.8581 8.95265C90.9826 8.31541 92.229 7.9968 93.5972 7.9968C94.6655 7.9968 95.6495 8.19359 96.5491 8.58718C97.4487 8.98076 98.2265 9.54303 98.8825 10.274L96.521 12.6636C96.1649 12.27 95.7338 11.9701 95.2278 11.764C94.7405 11.5578 94.1969 11.4547 93.5972 11.4547C92.9225 11.4547 92.3133 11.614 91.7698 11.9327C91.245 12.2325 90.8233 12.6542 90.5047 13.1978C90.2048 13.7225 90.0549 14.3504 90.0549 15.0814C90.0549 15.7936 90.2048 16.4308 90.5047 16.9931C90.8233 17.5366 91.245 17.9677 91.7698 18.2863C92.3133 18.5862 92.9225 18.7361 93.5972 18.7361C94.2157 18.7361 94.7686 18.633 95.2559 18.4268C95.7619 18.2019 96.193 17.8833 96.5491 17.471L98.9387 19.8606C98.2453 20.6103 97.4487 21.182 96.5491 21.5755C95.6495 21.9691 94.6655 22.1659 93.5972 22.1659Z" fill="#EDEDFF"/>
<path d="M80.214 21.8848V8.30605H83.9249V21.8848H80.214ZM82.0695 6.11321C81.4697 6.11321 80.973 5.91642 80.5795 5.52283C80.1859 5.1105 79.9891 4.60446 79.9891 4.00471C79.9891 3.4237 80.1859 2.92703 80.5795 2.5147C80.973 2.10237 81.4697 1.89621 82.0695 1.89621C82.688 1.89621 83.1846 2.10237 83.5595 2.5147C83.9531 2.92703 84.1498 3.4237 84.1498 4.00471C84.1498 4.60446 83.9531 5.1105 83.5595 5.52283C83.1846 5.91642 82.688 6.11321 82.0695 6.11321Z" fill="#EDEDFF"/>
<path d="M68.5184 21.8848V8.30604H72.2012V21.8848H68.5184ZM72.2012 14.3785L70.7674 13.4227C70.9361 11.7546 71.4234 10.4427 72.2293 9.4868C73.0352 8.5122 74.1973 8.0249 75.7154 8.0249C76.3714 8.0249 76.9617 8.13736 77.4865 8.36226C78.0113 8.56843 78.4892 8.91516 78.9203 9.40246L76.615 12.0451C76.4089 11.8202 76.1558 11.6515 75.856 11.5391C75.5748 11.4266 75.2468 11.3704 74.872 11.3704C74.0848 11.3704 73.4382 11.6234 72.9322 12.1295C72.4449 12.6167 72.2012 13.3664 72.2012 14.3785Z" fill="#EDEDFF"/>
<path d="M52 21.8848V2.12112H55.8234V21.8848H52ZM54.8113 21.8848V18.5112H65.7474V21.8848H54.8113ZM54.8113 13.4227V10.1615H64.7635V13.4227H54.8113ZM54.8113 5.49472V2.12112H65.6069V5.49472H54.8113Z" fill="#EDEDFF"/>
<path d="M142.022 38.5814C141.619 38.5814 141.232 38.5284 140.861 38.4224C140.49 38.3058 140.151 38.1468 139.844 37.9454C139.547 37.744 139.287 37.5055 139.065 37.23L139.78 36.4986C140.077 36.859 140.411 37.1293 140.782 37.3094C141.164 37.479 141.588 37.5638 142.054 37.5638C142.552 37.5638 142.939 37.4684 143.214 37.2777C143.501 37.0869 143.644 36.8219 143.644 36.4827C143.644 36.1647 143.543 35.9156 143.342 35.7355C143.14 35.5553 142.881 35.4122 142.563 35.3062C142.255 35.2002 141.927 35.0995 141.577 35.0041C141.227 34.8981 140.893 34.7709 140.575 34.6225C140.257 34.4635 139.998 34.2463 139.796 33.9707C139.605 33.6951 139.51 33.3347 139.51 32.8895C139.51 32.4656 139.611 32.0999 139.812 31.7925C140.024 31.4745 140.321 31.2308 140.702 31.0612C141.095 30.881 141.556 30.7909 142.086 30.7909C142.647 30.7909 143.156 30.8916 143.612 31.093C144.068 31.2944 144.433 31.5911 144.709 31.9833L143.994 32.6988C143.771 32.4126 143.49 32.1953 143.151 32.0469C142.822 31.8879 142.451 31.8084 142.038 31.8084C141.561 31.8084 141.195 31.9038 140.941 32.0946C140.697 32.2748 140.575 32.5133 140.575 32.8101C140.575 33.0962 140.676 33.3241 140.877 33.4937C141.079 33.6527 141.333 33.7852 141.641 33.8912C141.958 33.9866 142.292 34.0873 142.642 34.1933C142.992 34.2887 143.326 34.4211 143.644 34.5907C143.962 34.7497 144.216 34.9723 144.407 35.2585C144.608 35.5341 144.709 35.9103 144.709 36.3873C144.709 37.0551 144.465 37.5903 143.978 37.9931C143.501 38.3853 142.849 38.5814 142.022 38.5814Z" fill="#4F9E1A"/>
<path d="M133.676 38.5814C132.966 38.5814 132.33 38.4118 131.768 38.0726C131.206 37.7228 130.761 37.2565 130.432 36.6735C130.114 36.0905 129.955 35.4334 129.955 34.702C129.955 33.9601 130.114 33.2976 130.432 32.7147C130.761 32.1211 131.206 31.6547 131.768 31.3156C132.33 30.9658 132.96 30.7909 133.66 30.7909C134.232 30.7909 134.741 30.9075 135.186 31.1407C135.642 31.3633 136.008 31.6812 136.283 32.0946C136.569 32.4974 136.744 32.969 136.808 33.5096V35.8467C136.744 36.3873 136.569 36.8643 136.283 37.2777C136.008 37.691 135.642 38.0143 135.186 38.2475C134.741 38.4701 134.238 38.5814 133.676 38.5814ZM133.851 37.5161C134.624 37.5161 135.244 37.2565 135.711 36.7371C136.188 36.2177 136.426 35.5341 136.426 34.6861C136.426 34.1244 136.315 33.6315 136.092 33.2075C135.88 32.773 135.578 32.4391 135.186 32.2059C134.805 31.9621 134.354 31.8402 133.835 31.8402C133.305 31.8402 132.833 31.9621 132.42 32.2059C132.017 32.4497 131.694 32.7889 131.45 33.2234C131.217 33.6474 131.1 34.135 131.1 34.6861C131.1 35.2373 131.217 35.7249 131.45 36.1488C131.694 36.5728 132.022 36.9067 132.436 37.1505C132.849 37.3942 133.321 37.5161 133.851 37.5161ZM136.363 38.4224V36.4191L136.585 34.5748L136.363 32.7783V30.9499H137.476V38.4224H136.363Z" fill="#4F9E1A"/>
<path d="M125.983 38.5814C125.581 38.5814 125.194 38.5284 124.823 38.4224C124.452 38.3058 124.113 38.1468 123.805 37.9454C123.509 37.744 123.249 37.5055 123.026 37.23L123.742 36.4986C124.038 36.859 124.372 37.1293 124.743 37.3094C125.125 37.479 125.549 37.5638 126.015 37.5638C126.513 37.5638 126.9 37.4684 127.176 37.2777C127.462 37.0869 127.605 36.8219 127.605 36.4827C127.605 36.1647 127.504 35.9156 127.303 35.7355C127.102 35.5553 126.842 35.4122 126.524 35.3062C126.217 35.2002 125.888 35.0995 125.538 35.0041C125.188 34.8981 124.855 34.7709 124.537 34.6225C124.219 34.4635 123.959 34.2463 123.758 33.9707C123.567 33.6951 123.471 33.3347 123.471 32.8895C123.471 32.4656 123.572 32.0999 123.773 31.7925C123.985 31.4745 124.282 31.2308 124.664 31.0612C125.056 30.881 125.517 30.7909 126.047 30.7909C126.609 30.7909 127.118 30.8916 127.573 31.093C128.029 31.2944 128.395 31.5911 128.67 31.9833L127.955 32.6988C127.732 32.4126 127.451 32.1953 127.112 32.0469C126.784 31.8879 126.413 31.8084 125.999 31.8084C125.522 31.8084 125.157 31.9038 124.902 32.0946C124.659 32.2748 124.537 32.5133 124.537 32.8101C124.537 33.0962 124.637 33.3241 124.839 33.4937C125.04 33.6527 125.294 33.7852 125.602 33.8912C125.92 33.9866 126.254 34.0873 126.603 34.1933C126.953 34.2887 127.287 34.4211 127.605 34.5907C127.923 34.7497 128.177 34.9723 128.368 35.2585C128.57 35.5341 128.67 35.9103 128.67 36.3873C128.67 37.0551 128.427 37.5903 127.939 37.9931C127.462 38.3853 126.81 38.5814 125.983 38.5814Z" fill="#4F9E1A"/>
<path d="M118.044 38.5814C117.323 38.5814 116.666 38.4065 116.073 38.0567C115.49 37.7069 115.023 37.2353 114.674 36.6417C114.334 36.0481 114.165 35.3857 114.165 34.6543C114.165 33.9336 114.334 33.2817 114.674 32.6988C115.023 32.1158 115.49 31.6547 116.073 31.3156C116.666 30.9658 117.323 30.7909 118.044 30.7909C118.775 30.7909 119.433 30.9605 120.016 31.2997C120.599 31.6388 121.06 32.1052 121.399 32.6988C121.749 33.2817 121.923 33.9336 121.923 34.6543C121.923 35.3963 121.749 36.064 121.399 36.6576C121.06 37.2406 120.599 37.7069 120.016 38.0567C119.433 38.4065 118.775 38.5814 118.044 38.5814ZM118.044 37.5002C118.574 37.5002 119.04 37.3783 119.443 37.1346C119.857 36.8908 120.18 36.5516 120.413 36.117C120.657 35.6825 120.779 35.1949 120.779 34.6543C120.779 34.1138 120.657 33.6368 120.413 33.2234C120.18 32.7995 119.857 32.4656 119.443 32.2218C119.04 31.978 118.574 31.8561 118.044 31.8561C117.525 31.8561 117.058 31.978 116.645 32.2218C116.232 32.4656 115.908 32.7995 115.675 33.2234C115.442 33.6368 115.325 34.1138 115.325 34.6543C115.325 35.2055 115.442 35.6984 115.675 36.1329C115.908 36.5569 116.232 36.8908 116.645 37.1346C117.058 37.3783 117.525 37.5002 118.044 37.5002Z" fill="#4F9E1A"/>
<path d="M106.096 33.5255V32.5398H109.275C109.996 32.5398 110.547 32.3596 110.929 31.9992C111.31 31.6282 111.501 31.1354 111.501 30.5206C111.501 29.927 111.31 29.4448 110.929 29.0738C110.547 28.6922 109.996 28.5014 109.275 28.5014H106.096V27.4839H109.275C109.986 27.4839 110.595 27.6164 111.104 27.8814C111.612 28.1358 111.999 28.4908 112.264 28.9466C112.54 29.4024 112.678 29.9218 112.678 30.5047C112.678 31.1089 112.54 31.6388 112.264 32.0946C111.999 32.5504 111.612 32.9054 111.104 33.1598C110.595 33.4036 109.986 33.5255 109.275 33.5255H106.096ZM105.348 38.4224V27.4839H106.509V38.4224H105.348ZM111.962 38.4224L107.86 33.3665L108.989 33.0008L113.457 38.4224H111.962Z" fill="#4F9E1A"/>
<path d="M97.2132 38.5814C96.8104 38.5814 96.4235 38.5284 96.0526 38.4224C95.6816 38.3058 95.3424 38.1468 95.035 37.9454C94.7382 37.744 94.4786 37.5055 94.256 37.23L94.9714 36.4986C95.2682 36.859 95.6021 37.1293 95.9731 37.3094C96.3546 37.479 96.7786 37.5638 97.245 37.5638C97.7431 37.5638 98.13 37.4684 98.4056 37.2777C98.6918 37.0869 98.8349 36.8219 98.8349 36.4827C98.8349 36.1647 98.7342 35.9156 98.5328 35.7355C98.3314 35.5553 98.0717 35.4122 97.7537 35.3062C97.4464 35.2002 97.1178 35.0995 96.768 35.0041C96.4182 34.8981 96.0844 34.7709 95.7664 34.6225C95.4484 34.4635 95.1887 34.2463 94.9873 33.9707C94.7965 33.6951 94.7012 33.3347 94.7012 32.8895C94.7012 32.4656 94.8018 32.0999 95.0032 31.7925C95.2152 31.4745 95.512 31.2308 95.8936 31.0612C96.2857 30.881 96.7468 30.7909 97.2768 30.7909C97.8385 30.7909 98.3473 30.8916 98.8031 31.093C99.2588 31.2944 99.6245 31.5911 99.9001 31.9833L99.1846 32.6988C98.9621 32.4126 98.6812 32.1953 98.342 32.0469C98.0134 31.8879 97.6425 31.8084 97.2291 31.8084C96.7521 31.8084 96.3864 31.9038 96.1321 32.0946C95.8883 32.2748 95.7664 32.5133 95.7664 32.8101C95.7664 33.0962 95.8671 33.3241 96.0685 33.4937C96.2698 33.6527 96.5242 33.7852 96.8316 33.8912C97.1496 33.9866 97.4835 34.0873 97.8332 34.1933C98.183 34.2887 98.5169 34.4211 98.8349 34.5907C99.1528 34.7497 99.4072 34.9723 99.598 35.2585C99.7994 35.5341 99.9001 35.9103 99.9001 36.3873C99.9001 37.0551 99.6563 37.5903 99.1687 37.9931C98.6918 38.3853 98.0399 38.5814 97.2132 38.5814Z" fill="#4F9E1A"/>
<path d="M89.8188 38.5814C89.0663 38.5814 88.3932 38.4118 87.7997 38.0726C87.2061 37.7334 86.7345 37.2671 86.3847 36.6735C86.0455 36.0799 85.8759 35.4122 85.8759 34.6702C85.8759 33.9389 86.0455 33.2817 86.3847 32.6988C86.7239 32.1052 87.1849 31.6388 87.7679 31.2997C88.3508 30.9605 89.0027 30.7909 89.7235 30.7909C90.4018 30.7909 91.0007 30.9446 91.52 31.252C92.05 31.5593 92.4634 31.9886 92.7601 32.5398C93.0675 33.0803 93.2212 33.7057 93.2212 34.4158C93.2212 34.5006 93.2159 34.6013 93.2053 34.7179C93.1947 34.8239 93.1735 34.9511 93.1417 35.0995H86.6709V34.1456H92.5376L92.1401 34.4953C92.1507 33.9442 92.0553 33.4725 91.8539 33.0803C91.6631 32.6776 91.3822 32.3702 91.0113 32.1582C90.6509 31.9356 90.211 31.8243 89.6917 31.8243C89.1511 31.8243 88.6794 31.9409 88.2767 32.1741C87.8739 32.4073 87.5559 32.7359 87.3227 33.1598C87.1001 33.5732 86.9888 34.0661 86.9888 34.6384C86.9888 35.2108 87.1054 35.7143 87.3386 36.1488C87.5824 36.5834 87.9163 36.9226 88.3402 37.1664C88.7748 37.4101 89.273 37.532 89.8347 37.532C90.2905 37.532 90.7092 37.4525 91.0908 37.2935C91.4723 37.124 91.7956 36.8749 92.0606 36.5463L92.776 37.2777C92.4263 37.691 91.9917 38.0143 91.4723 38.2475C90.9636 38.4701 90.4124 38.5814 89.8188 38.5814Z" fill="#4F9E1A"/>
<path d="M82.9996 38.4224V27.166H84.1126V38.4224H82.9996Z" fill="#4F9E1A"/>
<path d="M77.8947 38.5814C77.1422 38.5814 76.4691 38.4118 75.8756 38.0726C75.282 37.7334 74.8103 37.2671 74.4605 36.6735C74.1214 36.0799 73.9518 35.4122 73.9518 34.6702C73.9518 33.9389 74.1214 33.2817 74.4605 32.6988C74.7997 32.1052 75.2608 31.6388 75.8438 31.2997C76.4267 30.9605 77.0786 30.7909 77.7993 30.7909C78.4777 30.7909 79.0765 30.9446 79.5959 31.252C80.1259 31.5593 80.5392 31.9886 80.836 32.5398C81.1434 33.0803 81.2971 33.7057 81.2971 34.4158C81.2971 34.5006 81.2918 34.6013 81.2812 34.7179C81.2706 34.8239 81.2494 34.9511 81.2176 35.0995H74.7467V34.1456H80.6134L80.216 34.4953C80.2266 33.9442 80.1312 33.4725 79.9298 33.0803C79.739 32.6776 79.4581 32.3702 79.0871 32.1582C78.7268 31.9356 78.2869 31.8243 77.7675 31.8243C77.227 31.8243 76.7553 31.9409 76.3525 32.1741C75.9497 32.4073 75.6318 32.7359 75.3986 33.1598C75.176 33.5732 75.0647 34.0661 75.0647 34.6384C75.0647 35.2108 75.1813 35.7143 75.4145 36.1488C75.6583 36.5834 75.9921 36.9226 76.4161 37.1664C76.8507 37.4101 77.3489 37.532 77.9106 37.532C78.3664 37.532 78.7851 37.4525 79.1666 37.2935C79.5482 37.124 79.8715 36.8749 80.1365 36.5463L80.8519 37.2777C80.5021 37.691 80.0676 38.0143 79.5482 38.2475C79.0394 38.4701 78.4883 38.5814 77.8947 38.5814Z" fill="#4F9E1A"/>
<path d="M68.4048 38.4224V30.9499H69.5178V38.4224H68.4048ZM69.5178 34.0661L69.0567 33.8594C69.0567 32.916 69.2846 32.1688 69.7404 31.6176C70.2067 31.0665 70.8427 30.7909 71.6482 30.7909C72.0192 30.7909 72.3584 30.8598 72.6658 30.9976C72.9731 31.1248 73.2593 31.3315 73.5243 31.6176L72.7929 32.3967C72.6128 32.1953 72.4114 32.0522 72.1888 31.9674C71.9768 31.8826 71.733 31.8402 71.4574 31.8402C70.8851 31.8402 70.4187 32.031 70.0583 32.4126C69.698 32.7836 69.5178 33.3347 69.5178 34.0661Z" fill="#4F9E1A"/>
<path d="M65.0202 38.4224V30.9499H66.149V38.4224H65.0202ZM65.5766 29.3282C65.3646 29.3282 65.1845 29.254 65.0361 29.1056C64.8877 28.9466 64.8135 28.7611 64.8135 28.5492C64.8135 28.3266 64.8877 28.1411 65.0361 27.9927C65.1845 27.8443 65.3646 27.7701 65.5766 27.7701C65.8098 27.7701 65.9953 27.8443 66.1331 27.9927C66.2815 28.1411 66.3557 28.3266 66.3557 28.5492C66.3557 28.7611 66.2815 28.9466 66.1331 29.1056C65.9953 29.254 65.8098 29.3282 65.5766 29.3282Z" fill="#4F9E1A"/>
<path d="M52 38.4224V27.4839H52.8267L57.5487 35.2267H56.9605L61.6824 27.4839H62.5092V38.4224H61.3327V29.519L61.6029 29.5826L57.66 36.0534H56.8333L52.8903 29.5826L53.1606 29.519V38.4224H52Z" fill="#4F9E1A"/>
</svg>
