<svg width="40" height="41" viewBox="0 0 40 41" fill="none" xmlns="http://www.w3.org/2000/svg">
<g clip-path="url(#clip0_1111_505)">
<path d="M33.3594 0.5H6.64062C2.97311 0.5 0 3.47311 0 7.14062V32.8594C0 36.5269 2.97311 39.5 6.64062 39.5H33.3594C37.0269 39.5 40 36.5269 40 32.8594V7.14062C40 3.47311 37.0269 0.5 33.3594 0.5Z" fill="#2E2E2E"/>
<path d="M16.0692 23.8332H9.87057L8.60932 27.7584C8.59316 27.8257 8.55533 27.8858 8.50166 27.9294C8.44799 27.9731 8.38145 27.998 8.31229 28.0001L5.14792 28C4.96886 28 4.9062 27.9015 4.96011 27.7046L10.3268 12.3126L10.3804 12.1509L10.3982 12.0956L10.4342 11.98C10.452 11.9203 10.4698 11.857 10.4878 11.7884C10.5581 11.4304 10.594 11.0665 10.5951 10.7017C10.5915 10.6762 10.5938 10.6502 10.602 10.6257C10.6102 10.6013 10.6239 10.5791 10.6421 10.5609C10.6603 10.5426 10.6825 10.5289 10.707 10.5207C10.7314 10.5126 10.7574 10.5102 10.7829 10.5139H15.0495C15.1745 10.5139 15.2459 10.5585 15.2642 10.6481L21.3553 27.7317C21.4089 27.9106 21.3553 28.0001 21.1943 28H17.7059C17.646 28.0066 17.5857 27.9912 17.5363 27.9566C17.487 27.9221 17.4519 27.8707 17.4376 27.8121L16.0692 23.8332ZM10.8367 20.5237H15.0764L15.0159 20.3242L14.9189 20.0082L14.7768 19.5557L14.5042 18.7015L14.2445 17.8806L13.7614 16.351C13.6279 15.9288 13.4997 15.5049 13.377 15.0795L13.2398 14.5957L13.0917 14.0656L12.9564 13.5739H12.9295C12.7953 14.218 12.6318 14.8556 12.4395 15.4848L12.2582 16.0665L11.8223 17.4728L11.6014 18.1892C11.5614 18.3185 11.5217 18.4465 11.4818 18.5729L11.3631 18.9476L11.2449 19.3135L11.1274 19.6704L11.0106 20.0184C10.9524 20.1903 10.8943 20.3585 10.8367 20.5237ZM31.2301 22.3056H25.944C26.0088 22.8286 26.1824 23.3322 26.4539 23.7839C26.7539 24.2312 27.1783 24.581 27.6746 24.7901C28.3474 25.0812 29.075 25.2238 29.8079 25.2082C30.3894 25.1971 30.9687 25.1335 31.5387 25.0182C32.0485 24.9494 32.5481 24.8192 33.0267 24.6304C33.116 24.5592 33.161 24.6035 33.161 24.7645V27.3137C33.1654 27.3832 33.1515 27.4526 33.1206 27.515C33.09 27.5637 33.0487 27.605 33 27.6357C32.4691 27.8709 31.9104 28.0373 31.3375 28.1311C30.5591 28.2772 29.7679 28.3446 28.976 28.3321C27.7454 28.3321 26.7081 28.1475 25.864 27.7782L25.7828 27.7418C24.9714 27.3844 24.2547 26.8422 23.6899 26.1587C23.1624 25.5146 22.7699 24.7709 22.536 23.9718C22.3046 23.1831 22.1872 22.3654 22.1874 21.5434C22.185 20.6459 22.3254 19.7537 22.6034 18.9003C22.8711 18.0679 23.2945 17.2939 23.851 16.6195C24.4 15.9529 25.0865 15.4128 25.8635 15.0362C26.6506 14.6518 27.5809 14.5139 28.6542 14.5139C29.5443 14.4914 30.4285 14.6654 31.2437 15.0237C31.9291 15.316 32.5325 15.7718 33.0012 16.351C33.4408 16.9183 33.7769 17.5587 33.994 18.2428C34.2054 18.902 34.3141 19.5898 34.316 20.2821C34.316 20.6759 34.3026 21.0337 34.2759 21.3556L34.252 21.6312L34.227 21.8928L34.2121 22.0253C34.211 22.0346 34.2099 22.0439 34.2087 22.0532C34.2017 22.1124 34.1733 22.1669 34.1288 22.2065C34.0843 22.246 34.0268 22.2679 33.9673 22.2679L33.8937 22.2695L33.802 22.2742L33.7306 22.2793L33.5637 22.2935L33.4171 22.3081C33.3773 22.3123 33.3359 22.3162 33.2929 22.3198L33.16 22.3303L33.0179 22.3396L32.8671 22.3475L32.7075 22.3542L32.6242 22.357L32.4512 22.3617C32.2801 22.3659 32.1048 22.3553 31.925 22.3421L31.6521 22.3221C31.5117 22.3119 31.3709 22.3063 31.2301 22.3056ZM25.9442 19.861H29.5982L29.9095 19.859L30.121 19.856L30.2581 19.8529L30.4118 19.8476C30.5494 19.8339 30.6823 19.7898 30.8009 19.7187V19.5578C30.7955 19.3479 30.7594 19.14 30.6937 18.9406C30.5489 18.4828 30.2579 18.0852 29.8652 17.8088C29.4726 17.5325 29.0001 17.3927 28.5203 17.4109C28.0686 17.3836 27.6188 17.4883 27.2257 17.7122C26.8326 17.9362 26.5132 18.2697 26.3064 18.6721C26.1225 19.0465 26.0002 19.4478 25.9442 19.861Z" fill="#CCCCCC"/>
</g>
<defs>
<clipPath id="clip0_1111_505">
<rect width="40" height="40" fill="white" transform="translate(0 0.5)"/>
</clipPath>
</defs>
</svg>
