<svg width="40" height="41" viewBox="0 0 40 41" fill="none" xmlns="http://www.w3.org/2000/svg">
<path d="M25.3145 3.59907C25.6079 3.9606 25.7574 4.44839 26.0566 5.42397L32.5924 26.7365C30.1374 25.4718 27.5025 24.5863 24.7785 24.1104L20.523 9.8355C20.4891 9.72164 20.4189 9.62176 20.323 9.55078C20.2271 9.4798 20.1106 9.44155 19.991 9.44173C19.8714 9.44192 19.7551 9.48054 19.6594 9.55182C19.5637 9.62309 19.4939 9.7232 19.4603 9.83716L15.2563 24.1033C12.52 24.5769 9.87296 25.4638 7.40723 26.7332L13.9751 5.41899C14.2752 4.44517 14.4253 3.95815 14.7187 3.59731C14.9777 3.27878 15.3146 3.0314 15.6972 2.87876C16.1305 2.70581 16.6436 2.70581 17.6696 2.70581H22.3606C23.388 2.70581 23.9017 2.70581 24.3355 2.87905C24.7184 3.03206 25.0555 3.27996 25.3144 3.59907" fill="#FAFAFA"/>
<path d="M26.0967 27.7509C25.0193 28.6653 22.8687 29.2891 20.3915 29.2891C17.3512 29.2891 14.8029 28.3495 14.1267 27.0859C13.8849 27.8101 13.8307 28.639 13.8307 29.1684C13.8307 29.1684 13.6714 31.7683 15.4931 33.5766C15.4931 32.6376 16.26 31.8764 17.2059 31.8764C18.8272 31.8764 18.8252 33.2805 18.8238 34.4196L18.8237 34.5213C18.8237 36.2503 19.8882 37.7325 21.4023 38.3572C21.1692 37.8811 21.0485 37.3585 21.0493 36.8292C21.0493 35.1802 22.0245 34.5662 23.158 33.8526C24.0599 33.2849 25.062 32.654 25.7525 31.3886C26.1244 30.7069 26.3186 29.9436 26.3174 29.1684C26.3174 28.6742 26.2401 28.1979 26.0967 27.7509Z" fill="#808080"/>
</svg>
