<svg width="32" height="32" viewBox="0 0 32 32" fill="none" xmlns="http://www.w3.org/2000/svg">
<path d="M19.7132 4.85959C19.9182 5.11234 20.0227 5.45336 20.2318 6.13539L24.7992 21.0351C23.0836 20.151 21.2423 19.5319 19.3387 19.1992L16.3648 9.21952C16.3411 9.13992 16.2921 9.07009 16.2251 9.02047C16.1581 8.97085 16.0767 8.94411 15.9931 8.94424C15.9095 8.94437 15.8282 8.97137 15.7613 9.0212C15.6945 9.07103 15.6457 9.14101 15.6222 9.22068L12.6844 19.1942C10.7722 19.5253 8.92233 20.1454 7.19922 21.0328L11.789 6.13191C11.9987 5.4511 12.1036 5.11063 12.3087 4.85836C12.4896 4.63567 12.725 4.46273 12.9924 4.35602C13.2953 4.23511 13.6538 4.23511 14.3708 4.23511H17.649C18.367 4.23511 18.7259 4.23511 19.0291 4.35622C19.2967 4.46319 19.5322 4.6365 19.7132 4.85959" fill="#F0F0FF"/>
<path d="M20.6445 21.5071C19.8854 22.1562 18.3702 22.5989 16.6249 22.5989C14.4829 22.5989 12.6874 21.932 12.211 21.0352C12.0407 21.5491 12.0025 22.1374 12.0025 22.5132C12.0025 22.5132 11.8903 24.3585 13.1737 25.642C13.1737 24.9755 13.714 24.4352 14.3805 24.4352C15.5228 24.4352 15.5214 25.4318 15.5204 26.2404L15.5203 26.3125C15.5203 27.5397 16.2703 28.5918 17.337 29.0352C17.1728 28.6972 17.0878 28.3263 17.0883 27.9506C17.0883 26.7802 17.7754 26.3444 18.5741 25.8379C19.2095 25.435 19.9155 24.9872 20.402 24.089C20.664 23.6052 20.8008 23.0634 20.8 22.5132C20.8 22.1625 20.7455 21.8244 20.6445 21.5071Z" fill="#F0F0FF"/>
</svg>
