<svg width="160" height="22" viewBox="0 0 160 22" fill="none" xmlns="http://www.w3.org/2000/svg">
<path d="M9.82146 2.85029C11.1628 2.85029 12.2945 3.15767 13.2167 3.77244C14.1388 4.38721 14.8514 5.18361 15.3544 6.16165C15.8574 7.13969 16.1647 8.17362 16.2765 9.26344H3.32448C3.40831 8.25745 3.70172 7.26544 4.20471 6.2874C4.70771 5.30936 5.43425 4.49899 6.38435 3.85627C7.33444 3.18562 8.48015 2.85029 9.82146 2.85029ZM16.3604 11.4431C16.3045 12.6167 16.0669 13.7484 15.6478 14.8383C15.2007 15.9001 14.5021 16.7943 13.552 17.5209C12.5739 18.2474 11.3304 18.6107 9.82146 18.6107C8.22865 18.6107 6.94323 18.2195 5.96519 17.4371C4.9592 16.6546 4.21869 15.5369 3.74364 14.0838H0.390358C0.893349 16.1237 1.89933 17.8702 3.40831 19.3233C4.91729 20.7484 7.04103 21.461 9.77954 21.461C12.0151 21.461 13.8733 20.944 15.3544 19.9101C16.8075 18.8482 17.8833 17.4929 18.5819 15.8443C19.2526 14.1956 19.5879 12.477 19.5879 10.6886C19.5879 8.90017 19.2526 7.19558 18.5819 5.57483C17.8833 3.95408 16.8075 2.62674 15.3544 1.59281C13.8733 0.530936 12.0151 0 9.77954 0C7.57197 0 5.72766 0.516964 4.24663 1.55089C2.73765 2.58482 1.63387 3.96805 0.935265 5.70058C0.236664 7.4331 -0.0707207 9.34727 0.013113 11.4431H16.3604Z" fill="#FF8000"/>
<path d="M129.538 3.10301C127.386 3.10301 125.765 3.84352 124.675 5.32455C123.614 6.80558 123.083 8.60797 123.083 10.7317C123.083 12.073 123.306 13.3305 123.753 14.5042C124.228 15.6499 124.941 16.586 125.891 17.3125C126.869 18.0111 128.085 18.3604 129.538 18.3604C130.991 18.3604 132.192 18.0111 133.142 17.3125C134.121 16.586 134.833 15.6499 135.28 14.5042C135.755 13.3305 135.993 12.073 135.993 10.7317C135.993 8.60797 135.448 6.80558 134.358 5.32455C133.296 3.84352 131.689 3.10301 129.538 3.10301ZM128.49 21.4622C126.534 21.4622 124.885 20.9592 123.544 19.9532C122.23 18.9193 121.252 17.592 120.61 15.9712C119.967 14.3505 119.646 12.604 119.646 10.7317C119.646 8.85947 119.967 7.11297 120.61 5.49222C121.252 3.87146 122.23 2.5581 123.544 1.55211C124.885 0.518184 126.562 0.0012207 128.574 0.0012207C130.53 0.0012207 132.095 0.462297 133.268 1.38445C134.47 2.27866 135.378 3.46628 135.993 4.94731H136.58C136.188 3.57805 135.993 2.23674 135.993 0.923372V0.504211H139.43V20.9592H135.993V20.5401C135.993 19.1988 136.188 17.8435 136.58 16.4742H135.993C135.881 16.7816 135.755 17.061 135.616 17.3125C135.196 18.095 134.665 18.8075 134.023 19.4502C133.408 20.065 132.625 20.554 131.675 20.9173C130.753 21.2806 129.691 21.4622 128.49 21.4622Z" fill="#FF8000"/>
<path d="M115.494 11.2766C116.277 12.087 116.668 13.2746 116.668 14.8395C116.668 16.1529 116.319 17.3125 115.62 18.3185C114.921 19.3245 113.943 20.1069 112.686 20.6658C111.429 21.1967 109.989 21.4622 108.369 21.4622C106.748 21.4622 105.309 21.1967 104.051 20.6658C102.794 20.1069 101.802 19.3385 101.075 18.3604C100.377 17.3544 100.027 16.1948 100.027 14.8814H103.213C103.241 16.1109 103.73 17.0471 104.68 17.6898C105.658 18.3045 106.888 18.6119 108.369 18.6119C109.207 18.6119 109.989 18.4862 110.716 18.2347C111.47 17.9832 112.085 17.578 112.56 17.0191C113.035 16.4602 113.273 15.7616 113.273 14.9233C113.273 14.0571 113.035 13.3864 112.56 12.9114C112.085 12.4363 111.484 12.101 110.758 11.9054C110.031 11.7098 109.039 11.5281 107.782 11.3605C106.245 11.1928 104.987 10.9832 104.009 10.7317C103.031 10.4523 102.193 9.94929 101.494 9.22274C100.796 8.4962 100.447 7.4483 100.447 6.07904C100.447 4.8495 100.782 3.77366 101.452 2.85151C102.123 1.92935 103.059 1.23076 104.261 0.755708C105.462 0.252716 106.846 0.0012207 108.411 0.0012207C109.975 0.0012207 111.359 0.252716 112.56 0.755708C113.762 1.23076 114.698 1.92935 115.369 2.85151C116.039 3.77366 116.375 4.8495 116.375 6.07904V6.41437H113.189V6.07904C113.189 5.01717 112.728 4.22076 111.806 3.68983C110.884 3.13095 109.766 2.85151 108.452 2.85151C107.195 2.85151 106.105 3.13095 105.183 3.68983C104.289 4.22076 103.842 5.0032 103.842 6.03713C103.842 6.67984 104.037 7.18283 104.429 7.5461C104.848 7.90937 105.379 8.17484 106.021 8.34251C106.692 8.48223 107.558 8.62195 108.62 8.76167C110.269 8.98522 111.624 9.25069 112.686 9.55807C113.776 9.86545 114.712 10.4383 115.494 11.2766Z" fill="#FF8000"/>
<path d="M86.6993 21.4622C84.7432 21.4622 82.9408 20.9872 81.2921 20.0371C79.6713 19.059 78.3719 17.7596 77.3939 16.1389C76.4438 14.4902 75.9688 12.6878 75.9688 10.7317C75.9688 8.77564 76.4438 6.98722 77.3939 5.36647C78.3719 3.71777 79.6713 2.41838 81.2921 1.46828C82.9408 0.49024 84.7432 0.0012207 86.6993 0.0012207C88.6553 0.0012207 90.4437 0.49024 92.0645 1.46828C93.7132 2.41838 95.0126 3.71777 95.9627 5.36647C96.9407 6.98722 97.4298 8.77564 97.4298 10.7317C97.4298 12.6878 96.9407 14.4902 95.9627 16.1389C95.0126 17.7596 93.7132 19.059 92.0645 20.0371C90.4437 20.9872 88.6553 21.4622 86.6993 21.4622ZM86.6993 18.3604C88.0406 18.3604 89.2701 18.0251 90.3879 17.3544C91.5056 16.6558 92.3859 15.7337 93.0286 14.588C93.6713 13.4143 93.9926 12.1289 93.9926 10.7317C93.9926 9.33452 93.6713 8.06306 93.0286 6.91736C92.3859 5.74371 91.5056 4.82156 90.3879 4.1509C89.2701 3.4523 88.0406 3.10301 86.6993 3.10301C85.3579 3.10301 84.1284 3.4523 83.0106 4.1509C81.8929 4.82156 81.0126 5.74371 80.3699 6.91736C79.7272 8.06306 79.4059 9.33452 79.4059 10.7317C79.4059 12.1289 79.7272 13.4143 80.3699 14.588C81.0126 15.7337 81.8929 16.6558 83.0106 17.3544C84.1284 18.0251 85.3579 18.3604 86.6993 18.3604Z" fill="#FF8000"/>
<path d="M70.9532 1.38488C72.0709 0.825996 73.3564 0.532583 74.8094 0.504639V3.60642C72.9931 3.60642 71.4841 4.02558 70.2825 4.8639C69.0809 5.67428 68.2007 6.72218 67.6418 8.00761C67.1109 9.29303 66.8454 10.6623 66.8454 12.1154V20.9597H63.4083V4.19325C63.4083 3.99764 63.3524 3.85792 63.2406 3.77409C63.1568 3.66231 63.0171 3.60642 62.8215 3.60642H60.7676V0.504639H64.9173C65.3644 0.504639 65.7416 0.644359 66.049 0.9238C66.3564 1.1753 66.5101 1.51062 66.5101 1.92978C66.5101 2.99166 66.3145 4.65432 65.9232 6.91779H66.5101C66.8733 5.63236 67.4183 4.52858 68.1448 3.60642C68.8993 2.65633 69.8354 1.91581 70.9532 1.38488Z" fill="#FF8000"/>
<path d="M56.8408 5.19908C57.3159 6.37273 57.5534 7.56035 57.5534 8.76194V20.9595H54.1163V9.09727C54.1163 7.56035 53.7251 6.21904 52.9426 5.07333C52.1881 3.89969 51.0285 3.20109 49.4636 2.97753C48.0943 2.75398 46.9207 2.92164 45.9426 3.48052C44.9646 4.0394 44.1822 4.83581 43.5953 5.86974C43.0085 6.87572 42.6033 8.00745 42.3798 9.26493C42.2121 10.6621 42.1283 12.1152 42.1283 13.6242V20.9595H38.9427V9.09727C38.9427 7.50446 38.5794 6.14918 37.8529 5.03142C37.1263 3.91366 35.9527 3.22903 34.3319 2.97753C32.9627 2.78193 31.789 2.96356 30.811 3.52244C29.8329 4.05338 29.0365 4.83581 28.4218 5.86974C27.8349 6.90367 27.4297 8.0354 27.2062 9.26493L27.1643 9.47451C27.1084 10.2569 27.0525 10.9276 26.9966 11.4865C26.9687 12.0174 26.9547 12.73 26.9547 13.6242V20.9595H23.5176V0.504489H26.9547V2.05538C26.9547 2.72604 26.8709 3.48053 26.7032 4.31885C26.5635 5.12922 26.3818 5.88371 26.1583 6.58231H26.7451C27.1922 4.96156 27.9048 3.62025 28.8828 2.55837C29.8609 1.4965 30.9926 0.769957 32.278 0.378741C33.5914 -0.0404196 34.9467 -0.0823355 36.3439 0.252993C37.6014 0.532433 38.5934 1.09131 39.3199 1.92963C40.0465 2.74001 40.5355 3.5923 40.787 4.48651C41.0664 5.35277 41.1782 6.05137 41.1223 6.58231H41.7091C42.2121 4.96156 42.9666 3.62025 43.9726 2.55837C44.9786 1.4965 46.1243 0.755985 47.4097 0.336825C48.7231 -0.0823351 50.0923 -0.110279 51.5175 0.252993C52.8029 0.560378 53.8927 1.17515 54.7869 2.0973C55.7091 2.99151 56.3937 4.02543 56.8408 5.19908Z" fill="#FF8000"/>
<path d="M144.534 11.2754C143.752 12.0858 143.36 13.2734 143.36 14.8383C143.36 16.1516 143.71 17.3113 144.408 18.3173C145.107 19.3233 146.085 20.1057 147.342 20.6646C148.6 21.1955 150.039 21.461 151.66 21.461C153.28 21.461 154.72 21.1955 155.977 20.6646C157.235 20.1057 158.227 19.3373 158.953 18.3592C159.652 17.3532 160.001 16.1936 160.001 14.8802H156.815C156.787 16.1097 156.298 17.0458 155.348 17.6886C154.37 18.3033 153.141 18.6107 151.66 18.6107C150.821 18.6107 150.039 18.485 149.312 18.2335C148.558 17.982 147.943 17.5768 147.468 17.0179C146.993 16.459 146.756 15.7604 146.756 14.9221C146.756 14.0558 146.993 13.3852 147.468 12.9101C147.943 12.4351 148.544 12.0998 149.27 11.9041C149.997 11.7085 150.989 11.5269 152.247 11.3592C153.783 11.1916 155.041 10.982 156.019 10.7305C156.997 10.4511 157.835 9.94807 158.534 9.22152C159.233 8.49498 159.582 7.44708 159.582 6.07782C159.582 4.84828 159.246 3.77244 158.576 2.85029C157.905 1.92813 156.969 1.22953 155.767 0.754487C154.566 0.251496 153.183 0 151.618 0C150.053 0 148.67 0.251496 147.468 0.754487C146.266 1.22953 145.33 1.92813 144.66 2.85029C143.989 3.77244 143.654 4.84828 143.654 6.07782V6.41315H146.839V6.07782C146.839 5.01595 147.3 4.21954 148.223 3.68861C149.145 3.12973 150.262 2.85029 151.576 2.85029C152.833 2.85029 153.923 3.12973 154.845 3.68861C155.74 4.21954 156.187 5.00198 156.187 6.0359C156.187 6.67862 155.991 7.18161 155.6 7.54488C155.181 7.90815 154.65 8.17362 154.007 8.34129C153.336 8.48101 152.47 8.62073 151.408 8.76045C149.759 8.984 148.404 9.24946 147.342 9.55685C146.253 9.86423 145.316 10.4371 144.534 11.2754Z" fill="#FF8000"/>
</svg>
