<svg width="32" height="32" viewBox="0 0 32 32" fill="none" xmlns="http://www.w3.org/2000/svg">
<mask id="mask0_1512_504" style="mask-type:luminance" maskUnits="userSpaceOnUse" x="8" y="4" width="16" height="24">
<path d="M24 4H8V28H24V4Z" fill="white"/>
</mask>
<g mask="url(#mask0_1512_504)">
<path d="M12 28C14.208 28 16 26.208 16 24V20H12C9.792 20 8 21.792 8 24C8 26.208 9.792 28 12 28Z" fill="#F0F0FF" fill-opacity="0.7"/>
<path d="M8 16C8 13.792 9.792 12 12 12H16V20H12C9.792 20 8 18.208 8 16Z" fill="#F0F0FF" fill-opacity="0.6"/>
<path d="M8 7.99999C8 5.792 9.792 4 12 4H16V12H12C9.792 12 8 10.208 8 7.99999Z" fill="#F0F0FF" fill-opacity="0.4"/>
<path d="M16 4H20C22.208 4 24 5.792 24 7.99999C24 10.208 22.208 12 20 12H16V4Z" fill="#F0F0FF" fill-opacity="0.6"/>
<path d="M24 16C24 18.208 22.208 20 20 20C17.792 20 16 18.208 16 16C16 13.792 17.792 12 20 12C22.208 12 24 13.792 24 16Z" fill="#F0F0FF" fill-opacity="0.8"/>
</g>
</svg>
