<svg width="40" height="41" viewBox="0 0 40 41" fill="none" xmlns="http://www.w3.org/2000/svg">
<path d="M14.1052 38.3825C17.3785 38.3825 20.0351 35.7121 20.0351 32.4217V26.4609H14.1052C10.8319 26.4609 8.17529 29.1314 8.17529 32.4217C8.17529 35.7121 10.8319 38.3825 14.1052 38.3825Z" fill="#6D6D6D"/>
<path d="M8.17529 20.5001C8.17529 17.2097 10.8319 14.5393 14.1052 14.5393H20.0351V26.4609H14.1052C10.8319 26.4609 8.17529 23.7904 8.17529 20.5001Z" fill="#ACACAC"/>
<path d="M8.17529 8.57846C8.17529 5.28811 10.8319 2.61768 14.1052 2.61768H20.0351V14.5392H14.1052C10.8319 14.5392 8.17529 11.8688 8.17529 8.57846Z" fill="#888888"/>
<path d="M20.0352 2.61768H25.9651C29.2384 2.61768 31.895 5.28811 31.895 8.57846C31.895 11.8688 29.2384 14.5392 25.9651 14.5392H20.0352V2.61768Z" fill="#B1B1B1"/>
<path d="M31.895 20.5001C31.895 23.7904 29.2384 26.4609 25.9651 26.4609C22.6918 26.4609 20.0352 23.7904 20.0352 20.5001C20.0352 17.2097 22.6918 14.5393 25.9651 14.5393C29.2384 14.5393 31.895 17.2097 31.895 20.5001Z" fill="#8C8C8C"/>
</svg>
