<svg width="32" height="32" viewBox="0 0 32 32" fill="none" xmlns="http://www.w3.org/2000/svg">
<path d="M27.5471 14.9317L17.0687 4.45231C16.7788 4.16269 16.3858 4 15.9761 4C15.5663 4 15.1733 4.16269 14.8834 4.45231L12.7075 6.62731L15.4675 9.38824C15.793 9.27719 16.1431 9.25986 16.478 9.33823C16.8129 9.41661 17.119 9.58753 17.3614 9.8315C17.6038 10.0755 17.7728 10.3827 17.849 10.718C17.9252 11.0534 17.9056 11.4035 17.7925 11.7282L20.4521 14.3889C20.8497 14.2522 21.2821 14.2559 21.6772 14.3994C22.0724 14.5428 22.4064 14.8174 22.6237 15.1773C22.841 15.5372 22.9283 15.9606 22.8712 16.3771C22.8141 16.7936 22.616 17.178 22.3099 17.4661C22.0038 17.7543 21.6082 17.9288 21.189 17.9606C20.7698 17.9924 20.3524 17.8796 20.0063 17.641C19.6602 17.4024 19.4063 17.0523 19.287 16.6492C19.1677 16.2461 19.1901 15.8143 19.3506 15.4257L16.87 12.9442V19.4729C17.247 19.6594 17.5488 19.9694 17.7249 20.3514C17.9011 20.7333 17.941 21.1641 17.8381 21.5719C17.7351 21.9798 17.4955 22.34 17.1592 22.5926C16.8228 22.8452 16.4101 22.9748 15.9897 22.96C15.5693 22.9451 15.1668 22.7866 14.8491 22.5109C14.5314 22.2353 14.3178 21.859 14.2439 21.4449C14.17 21.0309 14.2402 20.604 14.4429 20.2354C14.6456 19.8668 14.9685 19.5789 15.3578 19.4195V12.8317C15.1332 12.7397 14.929 12.6041 14.7571 12.4328C14.5852 12.2615 14.4489 12.0578 14.3561 11.8336C14.2632 11.6093 14.2157 11.3689 14.2163 11.1262C14.2169 10.8835 14.2655 10.6433 14.3593 10.4195L11.6368 7.69793L4.45278 14.8829C4.16287 15.1728 4 15.5661 4 15.9761C4 16.3861 4.16287 16.7793 4.45278 17.0692L14.9312 27.5476C15.2211 27.8375 15.6143 28.0004 16.0243 28.0004C16.4343 28.0004 16.8275 27.8375 17.1175 27.5476L27.5471 17.1179C27.8371 16.8279 28 16.4345 28 16.0243C28 15.6142 27.8371 15.2208 27.5471 14.9307" fill="#F0F0FF"/>
</svg>
