<svg width="40" height="41" viewBox="0 0 40 41" fill="none" xmlns="http://www.w3.org/2000/svg">
<g clip-path="url(#clip0_1111_503)">
<path d="M39.2456 18.718L21.7812 1.25458C20.7761 0.248799 19.1448 0.248799 18.1384 1.25458L14.5119 4.88114L19.1123 9.48161C20.1814 9.12036 21.4073 9.3627 22.2595 10.2149C23.1158 11.0725 23.3564 12.309 22.9864 13.3815L27.42 17.8152C28.4927 17.4457 29.7303 17.6847 30.587 18.5429C31.7844 19.7397 31.7844 21.6796 30.587 22.8772C29.3894 24.075 27.4495 24.075 26.2512 22.8772C25.3506 21.9757 25.1281 20.653 25.5841 19.5435L21.4494 15.4088L21.4489 26.2896C21.7486 26.4378 22.0224 26.6335 22.2595 26.8693C23.4569 28.0661 23.4569 30.0061 22.2595 31.2047C21.0619 32.4019 19.1211 32.4019 17.9252 31.2047C16.7278 30.0061 16.7278 28.0663 17.9252 26.8694C18.2121 26.5823 18.5531 26.355 18.9284 26.2005V15.2183C18.5525 15.0649 18.2114 14.8374 17.9252 14.5494C17.018 13.6435 16.7998 12.3124 17.2647 11.1985L12.7297 6.66302L0.754687 18.6372C-0.251563 19.644 -0.251563 21.2754 0.754687 22.2813L18.2194 39.745C19.2248 40.751 20.8558 40.751 21.8625 39.745L39.2455 22.3624C40.2514 21.3561 40.2516 19.7238 39.2456 18.718Z" fill="#8A8A8A"/>
</g>
<defs>
<clipPath id="clip0_1111_503">
<rect width="40" height="40" fill="white" transform="translate(0 0.5)"/>
</clipPath>
</defs>
</svg>
