<svg width="12" height="12" viewBox="0 0 12 12" fill="none" xmlns="http://www.w3.org/2000/svg">
<path fill-rule="evenodd" clip-rule="evenodd" d="M6.01337 1C3.25887 1 1.02637 3.2325 1.02637 5.987C1.02637 8.19 2.45487 10.0595 4.43687 10.7195C4.68637 10.7645 4.77637 10.611 4.77637 10.479C4.77637 10.3605 4.77237 10.0465 4.77087 9.631C3.38337 9.932 3.09037 8.962 3.09037 8.962C2.86437 8.386 2.53687 8.2325 2.53687 8.2325C2.08437 7.923 2.57137 7.93 2.57137 7.93C3.07237 7.965 3.33487 8.444 3.33487 8.444C3.77987 9.206 4.50287 8.986 4.78587 8.8585C4.83137 8.536 4.96137 8.316 5.10337 8.1915C3.99637 8.066 2.83237 7.638 2.83237 5.7265C2.83237 5.183 3.02687 4.737 3.34437 4.389C3.29387 4.2625 3.12137 3.755 3.39387 3.069C3.39387 3.069 3.81237 2.9345 4.76487 3.5795C5.17166 3.46884 5.59129 3.41235 6.01287 3.4115C6.43446 3.41218 6.8541 3.46867 7.26087 3.5795C8.21387 2.934 8.63187 3.069 8.63187 3.069C8.90437 3.755 8.73337 4.2625 8.68137 4.389C9.00137 4.737 9.19337 5.1825 9.19337 5.7265C9.19337 7.643 8.02837 8.064 6.91737 8.1875C7.09487 8.3415 7.25487 8.6455 7.25487 9.1105C7.25487 9.7775 7.24887 10.3155 7.24887 10.479C7.24887 10.6125 7.33787 10.7675 7.59237 10.7185C9.57337 10.0575 11.0004 8.1895 11.0004 5.987C11.0004 3.2325 8.76787 1 6.01337 1Z" fill="#F0F0FF"/>
</svg>
