<svg width="32" height="32" viewBox="0 0 32 32" fill="none" xmlns="http://www.w3.org/2000/svg">
<path fill-rule="evenodd" clip-rule="evenodd" d="M2.41584 13.6199C2.35352 13.6199 2.33794 13.5888 2.3691 13.542L2.69628 13.1214C2.72744 13.0746 2.80534 13.0435 2.86767 13.0435H8.42983C8.49215 13.0435 8.50773 13.0902 8.47657 13.1369L8.2117 13.542C8.18054 13.5888 8.10264 13.6355 8.0559 13.6355L2.41584 13.6199Z" fill="#F0F0FF"/>
<path fill-rule="evenodd" clip-rule="evenodd" d="M0.0623211 15.0534C0 15.0534 -0.0155803 15.0222 0.0155803 14.9755L0.342766 14.5548C0.373927 14.5081 0.451828 14.4769 0.514149 14.4769H7.61876C7.68108 14.4769 7.71224 14.5237 7.69666 14.5704L7.57202 14.9443C7.55644 15.0067 7.49412 15.0378 7.4318 15.0378L0.0623211 15.0534Z" fill="#F0F0FF"/>
<path fill-rule="evenodd" clip-rule="evenodd" d="M3.83185 16.4867C3.76953 16.4867 3.75395 16.44 3.78511 16.3933L4.00324 16.0038C4.0344 15.957 4.09672 15.9103 4.15904 15.9103H7.2751C7.33742 15.9103 7.36858 15.957 7.36858 16.0193L7.33742 16.3933C7.33742 16.4556 7.2751 16.5023 7.22835 16.5023L3.83185 16.4867Z" fill="#F0F0FF"/>
<path fill-rule="evenodd" clip-rule="evenodd" d="M20.0056 13.3395C19.0241 13.5888 18.3541 13.7758 17.3882 14.0251C17.1545 14.0874 17.1389 14.103 16.9363 13.8693C16.7026 13.6044 16.5312 13.433 16.2041 13.2772C15.2225 12.7942 14.2721 12.9344 13.384 13.5109C12.3246 14.1964 11.7793 15.2092 11.7948 16.4712C11.8104 17.7176 12.6673 18.7459 13.8982 18.9173C14.9576 19.0575 15.8457 18.6836 16.5468 17.889C16.687 17.7176 16.8117 17.5306 16.9675 17.3125C16.4066 17.3125 15.7055 17.3125 13.9605 17.3125C13.6333 17.3125 13.5554 17.11 13.6645 16.8451C13.867 16.3621 14.2409 15.5519 14.4591 15.1468C14.5058 15.0534 14.6149 14.8976 14.8486 14.8976H20.5198C20.4886 15.3182 20.4886 15.7389 20.4263 16.1596C20.2549 17.2813 19.8343 18.3096 19.1487 19.2133C18.0269 20.6934 16.5624 21.6127 14.7083 21.8619C13.1815 22.0645 11.7637 21.7685 10.5173 20.8336C9.36431 19.9612 8.70994 18.8082 8.53856 17.3748C8.33601 15.6766 8.83458 14.1497 9.86288 12.8098C10.9691 11.3608 12.4336 10.4416 14.2254 10.1144C15.6899 9.84955 17.0921 10.0209 18.3541 10.8778C19.1799 11.4232 19.7719 12.171 20.1614 13.0747C20.2549 13.2149 20.1926 13.2928 20.0056 13.3395Z" fill="#F0F0FF"/>
<path d="M25.1623 21.9554C23.7445 21.9243 22.4514 21.5192 21.3607 20.5844C20.4415 19.7898 19.865 18.7771 19.6781 17.5774C19.3976 15.8168 19.8806 14.2588 20.9401 12.8721C22.0774 11.3764 23.4485 10.5974 25.3026 10.2702C26.8917 9.98978 28.3875 10.1456 29.7429 11.0648C30.9738 11.9062 31.7372 13.0435 31.9398 14.5392C32.2046 16.6426 31.597 18.3564 30.148 19.8209C29.1197 20.8648 27.8577 21.5192 26.4088 21.8152C25.9881 21.8931 25.5674 21.9087 25.1623 21.9554ZM28.8704 15.661C28.8549 15.4585 28.8549 15.3027 28.8237 15.1469C28.5433 13.6044 27.1255 12.7319 25.6453 13.0747C24.1964 13.4019 23.2615 14.3211 22.9188 15.7857C22.6383 17.0009 23.2304 18.2318 24.3522 18.7303C25.2091 19.1043 26.066 19.0575 26.8917 18.6368C28.1226 17.9981 28.7925 17.0009 28.8704 15.661Z" fill="#F0F0FF"/>
</svg>
