<svg width="40" height="41" viewBox="0 0 40 41" fill="none" xmlns="http://www.w3.org/2000/svg">
<g clip-path="url(#clip0_1111_511)">
<path d="M33.3594 0.5H6.64062C2.97311 0.5 0 3.47311 0 7.14062V32.8594C0 36.5269 2.97311 39.5 6.64062 39.5H33.3594C37.0269 39.5 40 36.5269 40 32.8594V7.14062C40 3.47311 37.0269 0.5 33.3594 0.5Z" fill="#1A1A1A"/>
<path d="M19.3835 23.9047H13.1851L11.9238 27.8223C11.9067 27.8938 11.8651 27.957 11.8063 28.0011C11.7476 28.0452 11.6752 28.0674 11.6018 28.0639H8.46229C8.28338 28.0639 8.22073 27.9654 8.27448 27.7686L13.6412 12.3126C13.6948 12.1517 13.7485 11.9684 13.8021 11.7626C13.8724 11.4045 13.9084 11.0408 13.9095 10.6759C13.9058 10.6504 13.9082 10.6244 13.9163 10.5999C13.9244 10.5754 13.9382 10.5532 13.9564 10.535C13.9746 10.5167 13.9968 10.503 14.0213 10.4948C14.0457 10.4867 14.0718 10.4843 14.0973 10.4879H18.3638C18.4888 10.4879 18.5604 10.5328 18.5785 10.6223L24.6696 27.7954C24.7234 27.9745 24.6696 28.064 24.5087 28.0639H21.0203C20.9604 28.0705 20.9001 28.0551 20.8507 28.0206C20.8013 27.986 20.7662 27.9346 20.752 27.8761L19.3835 23.9047ZM14.151 20.5237H18.3907L18.3303 20.3242L18.2332 20.0083L18.164 19.7864L18.0535 19.437L17.8187 18.7015L17.6121 18.0495L17.0757 16.3511C16.9422 15.9289 16.8141 15.505 16.6913 15.0795L16.5932 14.7342L16.4785 14.3259L16.3035 13.6931L16.2707 13.5739H16.244C16.1097 14.218 15.9462 14.8556 15.754 15.4848L15.3559 16.7654L15.1368 17.4729L14.9157 18.1892C14.8757 18.3186 14.836 18.4465 14.7962 18.5729L14.6774 18.9476L14.5593 19.3136L14.4418 19.6704L14.3249 20.0184C14.2862 20.1329 14.2474 20.2459 14.2088 20.3575L14.151 20.5237ZM28.2918 13.3323C28.0181 13.3433 27.7452 13.2964 27.4909 13.1947C27.2366 13.093 27.0066 12.9387 26.816 12.742C26.6259 12.5368 26.4783 12.296 26.3816 12.0335C26.2849 11.771 26.241 11.492 26.2524 11.2125C26.2427 10.9358 26.2915 10.6601 26.3955 10.4035C26.4995 10.147 26.6565 9.9152 26.8562 9.72341C27.2414 9.35366 27.7543 9.14675 28.2882 9.14575L28.3454 9.14638C28.9895 9.14638 29.4949 9.33856 29.8617 9.72325C30.0468 9.92313 30.1906 10.1575 30.285 10.4131C30.3794 10.6686 30.4224 10.9403 30.4117 11.2125C30.4229 11.4931 30.3776 11.7731 30.2785 12.0359C30.1794 12.2987 30.0285 12.5388 29.8348 12.7422C29.6392 12.935 29.407 13.0867 29.1518 13.1884C28.8967 13.2901 28.6238 13.3397 28.3492 13.3343L28.2918 13.3323ZM26.4403 27.7954V14.9692C26.4403 14.8083 26.5115 14.7276 26.6549 14.7276H29.9556C30.0985 14.7276 30.1701 14.8081 30.1703 14.9692V27.7954C30.1703 27.9745 30.0987 28.064 29.9556 28.0639H26.6818C26.5293 28.0639 26.449 27.9836 26.441 27.8229L26.4403 27.7954Z" fill="#808080"/>
</g>
<defs>
<clipPath id="clip0_1111_511">
<rect width="40" height="40" fill="white" transform="translate(0 0.5)"/>
</clipPath>
</defs>
</svg>
