<svg width="40" height="41" viewBox="0 0 40 41" fill="none" xmlns="http://www.w3.org/2000/svg">
<g clip-path="url(#clip0_1111_497)">
<path d="M0 0.5H40V40.5H0V0.5Z" fill="#8B8B8B"/>
<path d="M10.5177 33.9269L13.5787 32.0744C14.1693 33.1214 14.7065 34.0074 15.9951 34.0074C17.2302 34.0074 18.0091 33.5242 18.0091 31.6449V18.8639H21.768V31.698C21.768 35.5913 19.4859 37.3635 16.1562 37.3635C13.1491 37.3635 11.4037 35.8061 10.5176 33.9266M23.8098 33.5241L26.8704 31.7521C27.6762 33.0678 28.7234 34.0344 30.5759 34.0344C32.1335 34.0344 33.1266 33.2556 33.1266 32.1816C33.1266 30.8928 32.1063 30.4363 30.3879 29.6847L29.4484 29.2816C26.7363 28.1274 24.9374 26.6774 24.9374 23.6164C24.9374 20.7971 27.0854 18.6489 30.4418 18.6489C32.8315 18.6489 34.5499 19.4814 35.7849 21.6563L32.858 23.536C32.2135 22.3814 31.5157 21.925 30.4416 21.925C29.3407 21.925 28.6426 22.6231 28.6426 23.536C28.6426 24.6636 29.3407 25.1203 30.9516 25.8185L31.8913 26.2211C35.0866 27.5906 36.8855 28.9867 36.8855 32.128C36.8855 35.5114 34.2274 37.3639 30.6563 37.3639C27.1659 37.3639 24.9104 35.6992 23.8096 33.5242" fill="black"/>
</g>
<defs>
<clipPath id="clip0_1111_497">
<rect width="40" height="40" fill="white" transform="translate(0 0.5)"/>
</clipPath>
</defs>
</svg>
