<svg width="40" height="41" viewBox="0 0 40 41" fill="none" xmlns="http://www.w3.org/2000/svg">
<g clip-path="url(#clip0_1111_514)">
<path d="M33.3594 0.5H6.64062C2.97311 0.5 0 3.47311 0 7.14063V32.8594C0 36.5269 2.97311 39.5 6.64062 39.5H33.3594C37.0269 39.5 40 36.5269 40 32.8594V7.14063C40 3.47311 37.0269 0.5 33.3594 0.5Z" fill="#1B1B1B"/>
<path d="M9.00684 27.8492V10.7026C9.00684 10.5776 9.06059 10.5148 9.16793 10.5148L9.33777 10.5143L9.62809 10.5112L10.0315 10.5032L11.3831 10.4746L12.8323 10.4478C13.342 10.439 13.8473 10.4343 14.3482 10.4343C15.7076 10.4343 16.8525 10.6043 17.7829 10.9442C18.6222 11.2281 19.3877 11.6956 20.0236 12.3126C20.5626 12.8475 20.9791 13.493 21.2445 14.2045C21.4955 14.8969 21.6227 15.628 21.6203 16.3645C21.6203 17.7959 21.2892 18.9765 20.6273 19.9065C19.9799 20.8138 19.0769 21.5077 18.0336 21.8996L17.944 21.9325C16.8545 22.3389 15.6479 22.4857 14.3246 22.495L14.119 22.4956L13.8139 22.494L13.66 22.4918L13.4884 22.4878L13.385 22.4837L13.3221 22.4804L13.1676 22.4748L12.9787 22.4709L12.6943 22.4689L12.6311 22.4687V27.8223C12.6358 27.8551 12.6328 27.8886 12.6223 27.92C12.6118 27.9515 12.5941 27.9801 12.5707 28.0035C12.5473 28.0269 12.5187 28.0446 12.4872 28.0551C12.4558 28.0656 12.4223 28.0686 12.3895 28.0639H9.1948C9.06934 28.0639 9.00684 27.9926 9.00684 27.8492ZM12.6312 13.7348V19.3273C12.8454 19.3446 13.0601 19.3535 13.275 19.3542H14.1606C14.7712 19.3521 15.3782 19.2612 15.9626 19.0843L16.0792 19.0479C16.6108 18.89 17.0859 18.5826 17.4478 18.1623C17.784 17.7657 17.9582 17.2193 17.9703 16.5229L17.9711 16.445C17.9851 15.9259 17.8501 15.4137 17.5818 14.9692C17.2999 14.5393 16.8923 14.2066 16.4146 14.0165C15.7909 13.7741 15.1246 13.66 14.4557 13.6812L14.1154 13.6821L13.9007 13.684L13.6959 13.6867L13.4068 13.6923L13.1959 13.6982L13.0864 13.7023L12.94 13.7092L12.8153 13.7168L12.7442 13.7225L12.6828 13.7284L12.6557 13.7315L12.6312 13.7348ZM31.9953 18.3104C31.5272 18.0699 31.0307 17.8892 30.5175 17.7726L30.3987 17.747C29.8341 17.6174 29.2577 17.5461 28.6786 17.534L28.5339 17.5323C28.1943 17.5231 27.8553 17.5638 27.5276 17.6531C27.319 17.6995 27.1335 17.8183 27.0042 17.9884C26.9167 18.1245 26.8702 18.2829 26.8701 18.4446C26.875 18.6015 26.9316 18.7524 27.0311 18.8739C27.1735 19.0404 27.3447 19.18 27.5365 19.2859L27.5947 19.3167C27.9772 19.5227 28.3714 19.7063 28.7753 19.8667C29.6758 20.1681 30.5363 20.5781 31.3378 21.0876C31.8838 21.4322 32.3357 21.9071 32.6528 22.4696C32.9193 23.0022 33.0528 23.5914 33.0418 24.1868C33.0579 24.9732 32.8332 25.7457 32.3978 26.4007C31.9317 27.0656 31.2843 27.5824 30.5328 27.8898C29.7457 28.2357 28.7792 28.4143 27.6332 28.426L27.5142 28.4267C26.8038 28.4339 26.0944 28.3717 25.3961 28.241L25.2467 28.212C24.6587 28.1042 24.0864 27.9239 23.5428 27.6753C23.4881 27.6471 23.442 27.6049 23.409 27.553C23.376 27.5011 23.3573 27.4414 23.355 27.38V24.4553C23.3517 24.4269 23.3563 24.3981 23.3681 24.3721C23.38 24.3461 23.3986 24.3238 23.4221 24.3076C23.4452 24.2946 23.4716 24.2889 23.498 24.2913C23.5243 24.2937 23.5493 24.3041 23.5696 24.321C24.2116 24.6996 24.9087 24.9757 25.6357 25.1395C26.2766 25.3001 26.934 25.3857 27.5947 25.3945C28.2206 25.3945 28.6812 25.3139 28.9765 25.1529C29.1099 25.0919 29.2227 24.9935 29.3013 24.8697C29.3798 24.7459 29.4209 24.6019 29.4193 24.4553C29.4193 24.2231 29.2851 23.9993 29.0168 23.7845C28.9043 23.6945 28.7429 23.5965 28.5329 23.4907L28.4325 23.4414L28.3253 23.3909L28.269 23.3653L28.1512 23.3131C28.1308 23.3042 28.1103 23.2953 28.0898 23.2865L27.9617 23.2328L27.895 23.2054L27.7565 23.15L27.6847 23.1218L27.5357 23.0645L27.38 23.0062C26.5374 22.7129 25.7385 22.3067 25.0051 21.7987C24.4806 21.4339 24.0488 20.9515 23.744 20.39C23.4801 19.8612 23.3467 19.2769 23.355 18.686C23.3535 17.9761 23.5485 17.2795 23.9184 16.6735C24.3403 16.0064 24.9459 15.4751 25.6626 15.1442C26.4496 14.7509 27.4334 14.554 28.6142 14.5537C29.3058 14.5481 29.9967 14.5975 30.6804 14.7014C31.1755 14.7642 31.6596 14.8951 32.1189 15.0904C32.1928 15.1117 32.2523 15.1662 32.2798 15.2381C32.2981 15.3035 32.307 15.3712 32.3067 15.4393V18.1495C32.3106 18.2135 32.2798 18.275 32.2262 18.3104C32.1903 18.3283 32.1508 18.3375 32.1107 18.3375C32.0707 18.3375 32.0312 18.3283 31.9953 18.3104Z" fill="#989898"/>
</g>
<defs>
<clipPath id="clip0_1111_514">
<rect width="40" height="40" fill="white" transform="translate(0 0.5)"/>
</clipPath>
</defs>
</svg>
