<svg width="40" height="41" viewBox="0 0 40 41" fill="none" xmlns="http://www.w3.org/2000/svg">
<g clip-path="url(#clip0_1111_508)">
<path d="M7.08328 0.5H32.9167C36.8333 0.5 40 3.66672 40 7.58328V32.4167C40 36.3333 36.8333 39.5 32.9167 39.5H7.08328C3.16672 39.5 0 36.3333 0 32.4167V7.58328C0 3.66672 3.16672 0.5 7.08328 0.5Z" fill="#2E2E2E"/>
<path d="M9.5 27.85V10.7C9.5 10.5833 9.55 10.5167 9.66672 10.5167L9.90859 10.5163L10.0958 10.5147L10.2278 10.5122L10.3684 10.5086L10.5195 10.5033L10.6 10.5C10.75 10.4938 10.9023 10.4899 11.0578 10.4866L11.5352 10.4766C11.5894 10.4753 11.6442 10.4739 11.6994 10.4722L11.8666 10.4667C12.0166 10.4611 12.1703 10.4574 12.3278 10.4542L12.8111 10.4457L13.1456 10.4383L13.3167 10.4333C13.6611 10.4224 13.9981 10.4186 14.3327 10.4174L14.8333 10.4167C16.2 10.4167 17.3333 10.5833 18.2667 10.9333C19.1034 11.2175 19.8663 11.6843 20.5 12.3C21.0371 12.8388 21.452 13.4868 21.7167 14.2C21.9667 14.9 22.1 15.6167 22.1 16.3667C22.1 17.8 21.7667 18.9833 21.1 19.9167C20.4333 20.85 19.5 21.55 18.4167 21.95C17.3211 22.3528 16.1166 22.5063 14.803 22.5161H14.3266L14.1411 22.5142L14.0222 22.5114L13.9522 22.5085L13.8894 22.5047L13.8333 22.5C13.7973 22.4965 13.7613 22.4938 13.7252 22.4919L13.6439 22.4883L13.5548 22.486L13.4063 22.4839L13.1167 22.4833V27.8333C13.1333 27.95 13.05 28.05 12.9333 28.0667H9.7C9.56672 28.0667 9.5 28 9.5 27.85ZM13.1333 13.7333V19.3333L13.3292 19.3474C13.4803 19.3589 13.6318 19.3654 13.7833 19.3667H14.6667C15.3167 19.3667 15.9667 19.2667 16.5833 19.0667C17.1167 18.9167 17.5833 18.6 17.95 18.1833C18.3 17.7667 18.4667 17.2 18.4667 16.4667C18.4824 15.9459 18.3494 15.4313 18.0833 14.9833C17.8119 14.5682 17.4331 14.2447 16.9767 14.0571L16.9167 14.0333C16.3 13.7833 15.6333 13.6833 14.95 13.7L14.5647 13.7005L14.3836 13.7016L14.2106 13.7039L14.0464 13.7077C13.9664 13.7099 13.8897 13.7128 13.8167 13.7167C13.7809 13.715 13.7451 13.7135 13.7092 13.7124L13.6094 13.7102C13.5938 13.71 13.5781 13.7099 13.5625 13.7099L13.4741 13.7103L13.3938 13.7125L13.3566 13.7141L13.2883 13.718L13.2283 13.7227L13.2013 13.7252L13.1539 13.7307L13.1333 13.7333ZM24.4333 14.7H27.35C27.5073 14.7 27.6352 14.8041 27.6909 14.9421L27.7 14.9667C27.75 15.1 27.7833 15.2333 27.8 15.3833C27.8333 15.55 27.8667 15.7333 27.8833 15.9L27.8973 16.0613C27.9083 16.1989 27.9167 16.3453 27.9167 16.5C28.394 15.9427 28.9664 15.4746 29.6073 15.1174L29.7 15.0667C30.4667 14.6333 31.35 14.4167 32.2333 14.4167C32.35 14.4 32.45 14.4833 32.4667 14.6V17.9167C32.4667 18.05 32.3833 18.1 32.2 18.1C31.64 18.0844 31.0656 18.1271 30.5172 18.2411L30.4 18.2667C29.9167 18.3667 29.45 18.5167 29 18.7167C28.6833 18.8667 28.3833 19.0667 28.15 19.3333V27.8333C28.15 28 28.0833 28.0667 27.9333 28.0667H24.65C24.5167 28.0833 24.4 28 24.3833 27.8667V18.5667C24.3833 18.1667 24.3833 17.75 24.3667 17.3167L24.3567 16.9917L24.3433 16.3417C24.3406 16.2333 24.3375 16.125 24.3333 16.0167C24.3333 15.6333 24.3 15.2667 24.2667 14.8833C24.25 14.8 24.3 14.7167 24.3833 14.7C24.3833 14.6858 24.4078 14.6838 24.4253 14.6938L24.4333 14.7Z" fill="#CCCCCC"/>
</g>
<defs>
<clipPath id="clip0_1111_508">
<rect width="40" height="40" fill="white" transform="translate(0 0.5)"/>
</clipPath>
</defs>
</svg>
