<svg width="32" height="32" viewBox="0 0 32 32" fill="none" xmlns="http://www.w3.org/2000/svg">
<path d="M24.2475 12.2954C23.9751 12.2035 23.7003 12.1184 23.4235 12.04C23.47 11.8532 23.5128 11.6686 23.5508 11.4872C24.1746 8.50922 23.7668 6.11006 22.3739 5.32015C21.0384 4.56288 18.8543 5.3525 16.6485 7.24045C16.4311 7.42685 16.2186 7.61862 16.011 7.81558C15.8721 7.68461 15.7307 7.55618 15.5869 7.43036C13.2751 5.41171 10.9579 4.56091 9.56652 5.35309C8.23222 6.11272 7.83712 8.36809 8.39872 11.1904C8.45459 11.47 8.51768 11.748 8.58792 12.0244C8.25992 12.1161 7.94342 12.2136 7.64052 12.3175C4.93012 13.2468 3.19922 14.7033 3.19922 16.214C3.19922 17.7742 5.05742 19.3392 7.88042 20.2881C8.10928 20.3648 8.34006 20.4358 8.57252 20.5011C8.49702 20.7987 8.42999 21.0984 8.37152 21.3997C7.83612 24.1731 8.25422 26.3752 9.58492 27.13C10.9593 27.9095 13.2661 27.1084 15.5122 25.1773C15.6944 25.0203 15.8725 24.8589 16.0464 24.6932C16.2712 24.9064 16.5019 25.1135 16.7384 25.3141C18.9142 27.1554 21.063 27.8989 22.3924 27.142C23.7655 26.3602 24.2118 23.9946 23.6324 21.1165C23.5868 20.891 23.5356 20.6667 23.4789 20.4436C23.6409 20.3964 23.7999 20.3478 23.9549 20.2973C26.8897 19.3411 28.7992 17.7951 28.7992 16.214C28.7992 14.6978 27.0124 13.2315 24.2475 12.2954ZM23.611 19.2765C23.471 19.322 23.3274 19.3659 23.181 19.4087C22.857 18.4 22.4198 17.3274 21.8847 16.2192C22.3953 15.1374 22.8157 14.0785 23.1306 13.0763C23.3925 13.1509 23.6466 13.2294 23.8916 13.3123C26.2606 14.1145 27.7056 15.3002 27.7056 16.214C27.7056 17.1872 26.145 18.4506 23.611 19.2765ZM22.5596 21.3254C22.8158 22.598 22.8523 23.7486 22.6826 24.6482C22.5302 25.4565 22.2236 25.9954 21.8444 26.2112C21.0377 26.6705 19.3124 26.0736 17.4517 24.4988C17.2318 24.3123 17.0171 24.1198 16.808 23.9215C17.5294 23.1457 18.2503 22.2438 18.9539 21.242C20.1915 21.134 21.3607 20.9574 22.421 20.7163C22.4721 20.9183 22.5183 21.1213 22.5596 21.3254ZM11.9268 26.1319C11.1386 26.4056 10.5108 26.4134 10.1313 26.1983C9.32382 25.7403 8.98812 23.9721 9.44602 21.6004C9.50045 21.3201 9.56277 21.0414 9.63292 20.7645C10.6815 20.9927 11.8422 21.1567 13.0827 21.2557C13.7911 22.2359 14.5328 23.1368 15.2803 23.9258C15.1215 24.0769 14.9588 24.2242 14.7926 24.3675C13.7993 25.2214 12.804 25.8272 11.9268 26.1319ZM8.23422 19.2705C6.98592 18.8508 5.95502 18.3055 5.24842 17.7104C4.61342 17.1757 4.29292 16.6447 4.29292 16.214C4.29292 15.2972 5.68262 14.1278 8.00052 13.3331C8.28182 13.2367 8.57622 13.1457 8.88172 13.0604C9.20212 14.0852 9.62232 15.1566 10.1294 16.2401C9.61572 17.3396 9.18952 18.4282 8.86602 19.4651C8.65383 19.4053 8.44317 19.3404 8.23422 19.2705ZM9.47202 10.9838C8.99092 8.56577 9.31042 6.74174 10.1145 6.28394C10.9709 5.79634 12.8647 6.49155 14.8608 8.23464C14.991 8.34856 15.119 8.46479 15.2449 8.58327C14.5011 9.36876 13.7662 10.263 13.0641 11.2374C11.8601 11.3472 10.7076 11.5234 9.64802 11.7596C9.58274 11.5025 9.52405 11.2438 9.47202 10.9838ZM20.5147 13.6656C20.2644 13.2404 20.0049 12.8206 19.7362 12.4065C20.553 12.5081 21.3356 12.6429 22.0705 12.8077C21.8499 13.5032 21.5749 14.2303 21.2512 14.9758C21.0146 14.5343 20.7691 14.0975 20.5147 13.6656ZM16.0115 9.35204C16.5159 9.88951 17.0211 10.4895 17.518 11.1406C16.51 11.0938 15.5003 11.0936 14.4923 11.14C14.9897 10.4949 15.4992 9.8957 16.0115 9.35204ZM11.4794 13.6729C11.2283 14.1013 10.9873 14.5354 10.7567 14.9748C10.4383 14.232 10.1658 13.5016 9.94332 12.7962C10.6737 12.6355 11.4526 12.5041 12.2642 12.4044C11.9926 12.8211 11.7309 13.2441 11.4794 13.6729ZM12.2875 20.1C11.449 20.008 10.6584 19.8833 9.92822 19.727C10.1542 19.0091 10.4327 18.2631 10.758 17.5044C10.9895 17.9441 11.2315 18.3785 11.4837 18.807C11.7431 19.2476 12.0117 19.6792 12.2875 20.1ZM16.0417 23.1517C15.5233 22.6017 15.0063 21.9933 14.5014 21.3389C14.9916 21.3578 15.4913 21.3674 15.9992 21.3674C16.521 21.3674 17.0368 21.3559 17.5445 21.3337C17.046 21.9999 16.5427 22.6092 16.0417 23.1517ZM21.2615 17.4656C21.6037 18.2327 21.8921 18.9747 22.1211 19.6804C21.3789 19.847 20.5775 19.9811 19.7331 20.0807C20.0037 19.6589 20.2657 19.2318 20.519 18.7997C20.7766 18.3605 21.0241 17.9157 21.2615 17.4656ZM19.5717 18.2623C19.1839 18.9248 18.7744 19.5747 18.3436 20.211C17.5634 20.2654 16.7814 20.2924 15.9992 20.292C15.2025 20.292 14.4276 20.2676 13.6814 20.22C13.2394 19.5851 12.822 18.9341 12.4301 18.2682C12.04 17.6059 11.6758 16.9292 11.3379 16.2396C11.6749 15.5499 12.0382 14.8729 12.4269 14.2101L12.4268 14.2101C12.8154 13.5471 13.2295 12.8988 13.6681 12.2667C14.4294 12.2101 15.2101 12.1806 15.9991 12.1806C16.7917 12.1806 17.5735 12.2104 18.3346 12.2674C18.7688 12.8986 19.1802 13.5446 19.5681 14.2043C19.9582 14.8657 20.3262 15.5394 20.6717 16.2244C20.3298 16.9163 19.9629 17.5961 19.5717 18.2623ZM21.8277 6.25188C22.6849 6.7381 23.0183 8.69883 22.4797 11.2701C22.4453 11.4341 22.4067 11.6012 22.3647 11.7707C21.3025 11.5295 20.1492 11.3502 18.9417 11.2388C18.2383 10.2537 17.5094 9.35804 16.7777 8.58268C16.9695 8.40089 17.1658 8.22381 17.3665 8.05161C19.2565 6.43411 21.0229 5.79545 21.8277 6.25188ZM15.9992 13.9658C17.2617 13.9658 18.2852 14.9723 18.2852 16.214C18.2852 17.4556 17.2617 18.4621 15.9992 18.4621C14.7367 18.4621 13.7132 17.4556 13.7132 16.214C13.7132 14.9723 14.7367 13.9658 15.9992 13.9658Z" fill="#F0F0FF"/>
</svg>
