<svg width="40" height="41" viewBox="0 0 40 41" fill="none" xmlns="http://www.w3.org/2000/svg">
<g clip-path="url(#clip0_1111_495)">
<path d="M32.888 12.035C32.4623 11.8889 32.033 11.7536 31.6005 11.6292C31.6731 11.3323 31.74 11.039 31.7994 10.7509C32.7741 6.0195 32.1369 2.20779 29.9605 0.952785C27.8737 -0.25034 24.4611 1.00419 21.0145 4.00372C20.6749 4.29987 20.3427 4.60455 20.0184 4.91747C19.8013 4.70939 19.5804 4.50534 19.3558 4.30544C15.7436 1.09825 12.123 -0.253465 9.94891 1.00513C7.86406 2.212 7.24672 5.79529 8.12422 10.2793C8.21152 10.7234 8.31009 11.1653 8.41984 11.6043C7.90734 11.75 7.41281 11.905 6.93953 12.07C2.70453 13.5465 0 15.8604 0 18.2606C0 20.7395 2.90344 23.2259 7.31437 24.7336C7.67198 24.8553 8.03256 24.9681 8.39578 25.0718C8.27782 25.5448 8.17309 26.0209 8.08172 26.4997C7.24516 30.9059 7.89844 34.4045 9.97766 35.6037C12.1252 36.8422 15.7295 35.5694 19.2391 32.5014C19.5236 32.252 19.802 31.9955 20.0737 31.7322C20.4249 32.071 20.7855 32.4 21.155 32.7187C24.5547 35.644 27.9122 36.8253 29.9894 35.6228C32.1348 34.3808 32.8322 30.6223 31.9269 26.0497C31.8556 25.6914 31.7756 25.335 31.687 24.9806C31.9402 24.9056 32.1886 24.8284 32.4308 24.7481C37.0164 23.2289 40 20.7726 40 18.2606C40 15.8517 37.2081 13.5222 32.888 12.035ZM31.8934 23.1262C31.6747 23.1986 31.4503 23.2684 31.2216 23.3364C30.7153 21.7337 30.0322 20.0297 29.1961 18.2689C29.9939 16.5501 30.6508 14.8678 31.1428 13.2756C31.552 13.394 31.9491 13.5189 32.3319 13.6506C36.0334 14.925 38.2912 16.8089 38.2912 18.2606C38.2912 19.8068 35.8528 21.8142 31.8934 23.1262ZM30.2506 26.3815C30.6509 28.4034 30.708 30.2315 30.4428 31.6608C30.2047 32.945 29.7256 33.8011 29.1331 34.144C27.8727 34.8737 25.1769 33.9253 22.2695 31.4234C21.9258 31.1271 21.5904 30.8212 21.2638 30.5062C22.3909 29.2736 23.5173 27.8406 24.6167 26.249C26.5505 26.0775 28.3773 25.7969 30.0341 25.4139C30.1139 25.7347 30.1861 26.0573 30.2506 26.3815ZM13.6369 34.0179C12.4053 34.4528 11.4244 34.4653 10.8314 34.1234C9.56969 33.3958 9.04516 30.5865 9.76062 26.8184C9.84567 26.3731 9.94306 25.9303 10.0527 25.4904C11.6911 25.8529 13.5047 26.1136 15.443 26.2708C16.5498 27.8281 17.7087 29.2595 18.8767 30.5129C18.6285 30.7531 18.3744 30.9871 18.1147 31.2148C16.5627 32.5714 15.0075 33.5339 13.6369 34.0179ZM7.86719 23.1167C5.91672 22.45 4.30594 21.5836 3.20188 20.6381C2.20969 19.7886 1.70891 18.945 1.70891 18.2606C1.70891 16.804 3.88031 14.9462 7.50203 13.6836C7.94156 13.5304 8.40156 13.3859 8.87891 13.2503C9.37953 14.8784 10.0361 16.5808 10.8284 18.3022C10.0258 20.049 9.35984 21.7786 8.85437 23.4259C8.52283 23.3309 8.19367 23.2278 7.86719 23.1167ZM9.80125 9.95107C9.04953 6.10935 9.54875 3.21138 10.8052 2.48404C12.1433 1.70935 15.1023 2.81388 18.2212 5.58325C18.4246 5.76425 18.6247 5.94892 18.8214 6.13716C17.6592 7.38513 16.5109 8.80591 15.4139 10.354C13.5327 10.5284 11.7319 10.8084 10.0763 11.1836C9.97425 10.7752 9.88255 10.3641 9.80125 9.95107ZM27.0555 14.2118C26.6644 13.5364 26.2589 12.8694 25.8391 12.2114C27.1153 12.3728 28.3381 12.587 29.4864 12.8489C29.1417 13.9539 28.712 15.109 28.2063 16.2934C27.8366 15.592 27.4529 14.898 27.0555 14.2118ZM20.0192 7.35857C20.8073 8.21247 21.5967 9.16575 22.3731 10.2001C20.7981 10.1257 19.2205 10.1254 17.6455 10.1992C18.4227 9.17435 19.2188 8.22232 20.0192 7.35857ZM12.9378 14.2234C12.5454 14.904 12.1689 15.5937 11.8086 16.2918C11.3111 15.1117 10.8853 13.9512 10.5377 12.8306C11.6789 12.5753 12.8959 12.3665 14.1641 12.2081C13.7396 12.8701 13.3307 13.5422 12.9378 14.2234ZM14.2005 24.4347C12.8903 24.2884 11.655 24.0904 10.5141 23.842C10.8672 22.7014 11.3023 21.5162 11.8106 20.3108C12.1723 21.0094 12.5504 21.6995 12.9445 22.3804C13.3498 23.0804 13.7695 23.7661 14.2005 24.4347ZM20.0664 29.2831C19.2564 28.4093 18.4486 27.4426 17.6597 26.4029C18.4256 26.4329 19.2064 26.4483 20 26.4483C20.8153 26.4483 21.6213 26.43 22.4145 26.3947C21.6356 27.4531 20.8492 28.4212 20.0664 29.2831ZM28.2223 20.2492C28.757 21.4679 29.2077 22.6468 29.5655 23.7679C28.4058 24.0326 27.1536 24.2458 25.8342 24.404C26.257 23.7338 26.6664 23.0552 27.0622 22.3687C27.4646 21.6709 27.8514 20.9642 28.2223 20.2492ZM25.582 21.515C24.9761 22.5675 24.3361 23.6001 23.6631 24.6111C22.444 24.6974 21.2222 24.7403 20 24.7397C18.7552 24.7397 17.5444 24.7009 16.3784 24.6253C15.6878 23.6167 15.0357 22.5823 14.4233 21.5243C13.8138 20.472 13.2446 19.3969 12.7167 18.3014C13.2433 17.2056 13.8109 16.13 14.4183 15.0768L14.4181 15.077C15.0253 14.0236 15.6723 12.9936 16.3577 11.9893C17.5472 11.8993 18.767 11.8525 19.9998 11.8525C21.2383 11.8525 22.4598 11.8998 23.6491 11.9904C24.3275 12.9932 24.9704 14.0197 25.5764 15.0678C26.1858 16.1186 26.7609 17.189 27.3008 18.2772C26.7665 19.3765 26.1932 20.4564 25.582 21.515ZM29.107 2.4331C30.4464 3.2056 30.9673 6.32075 30.1258 10.4059C30.072 10.6665 30.0117 10.932 29.9461 11.2012C28.2864 10.8181 26.4844 10.5333 24.5977 10.3562C23.4986 8.79107 22.3597 7.3681 21.2164 6.13622C21.516 5.8474 21.8228 5.56606 22.1364 5.29247C25.0895 2.72263 27.8495 1.70794 29.107 2.4331ZM20 14.6887C21.9727 14.6887 23.5719 16.2879 23.5719 18.2606C23.5719 20.2333 21.9727 21.8325 20 21.8325C18.0273 21.8325 16.4281 20.2333 16.4281 18.2606C16.4281 16.2879 18.0273 14.6887 20 14.6887Z" fill="#808080"/>
</g>
<defs>
<clipPath id="clip0_1111_495">
<rect width="40" height="40" fill="white" transform="translate(0 0.5)"/>
</clipPath>
</defs>
</svg>
