<svg width="32" height="32" viewBox="0 0 32 32" fill="none" xmlns="http://www.w3.org/2000/svg">
<path fill-rule="evenodd" clip-rule="evenodd" d="M14.9917 5.06795C18.2124 3.04042 22.6668 3.98581 24.9223 7.1755C25.4575 7.91574 25.8378 8.75416 26.0406 9.64155C26.2435 10.5289 26.2649 11.4474 26.1037 12.3431C25.9475 13.1985 25.6174 14.0136 25.1334 14.7394C25.8396 16.0703 26.0766 17.5959 25.8068 19.0749C25.6475 19.9529 25.3044 20.7884 24.7996 21.528C24.2948 22.2675 23.6393 22.8948 22.8751 23.3698L17.2187 26.932C13.9984 28.9595 9.54395 28.0145 7.2881 24.8245C6.75297 24.0842 6.37283 23.2458 6.16996 22.3584C5.9671 21.471 5.9456 20.5526 6.10673 19.6569C6.26306 18.8015 6.59329 17.9863 7.07747 17.2605C6.37088 15.9297 6.13373 14.4041 6.40357 12.9251C6.56303 12.0471 6.90613 11.2117 7.41094 10.4721C7.91575 9.73261 8.57117 9.10529 9.33529 8.63028L14.9917 5.06795ZM9.33382 23.5219C10.4543 25.0854 12.4633 25.8063 14.3658 25.3274C14.7902 25.2177 15.1945 25.0457 15.5651 24.8174L21.4668 21.1764C21.9463 20.8844 22.3576 20.4987 22.6744 20.0441C22.9912 19.5895 23.2065 19.0759 23.3066 18.5361C23.4077 17.9855 23.3942 17.4209 23.2669 16.8754C23.1396 16.3299 22.901 15.8145 22.5651 15.3595C21.4447 13.796 19.4356 13.0751 17.5332 13.5538C17.1092 13.6635 16.705 13.8355 16.3348 14.0638L14.0829 15.4531C13.9708 15.522 13.8486 15.5741 13.7203 15.6073C13.4405 15.6775 13.1451 15.663 12.8741 15.5656C12.6031 15.4682 12.3694 15.2927 12.2047 15.0627C12.1036 14.9254 12.0318 14.7701 11.9935 14.6056C11.9552 14.4412 11.9512 14.2711 11.9816 14.1051C12.0118 13.9425 12.0767 13.7878 12.1721 13.6509C12.2676 13.514 12.3914 13.3979 12.5359 13.3099L18.4381 9.66884C18.5501 9.5998 18.6724 9.54778 18.8006 9.51458C19.0804 9.44428 19.3757 9.45878 19.6466 9.55612C19.9176 9.65346 20.1511 9.82896 20.3158 10.0589C20.4961 10.3061 20.5803 10.6069 20.5538 10.9084L20.5335 11.1203L20.7529 11.1848C21.5826 11.4271 22.3635 11.8049 23.0618 12.3019L23.3641 12.5165L23.4752 12.1884C23.5348 12.0139 23.5819 11.8357 23.6163 11.6549C23.7174 11.1043 23.7039 10.5397 23.5766 9.99415C23.4493 9.44863 23.2107 8.93322 22.8748 8.47816C21.7545 6.91472 19.7454 6.19382 17.8429 6.67269C17.4186 6.78242 17.0142 6.95443 16.6436 7.18273L10.7419 10.824C10.2624 11.1159 9.85105 11.5015 9.53425 11.956C9.21746 12.4106 9.00216 12.9241 8.90212 13.4638C8.80098 14.0145 8.81448 14.5791 8.94181 15.1246C9.06914 15.6701 9.30775 16.1855 9.64363 16.6406C10.764 18.2041 12.773 18.925 14.6755 18.4461C15.0995 18.3364 15.5036 18.1646 15.874 17.9366L18.1263 16.5468C18.2382 16.4779 18.3603 16.4259 18.4883 16.3927C18.7682 16.3225 19.0636 16.337 19.3346 16.4344C19.6056 16.5318 19.8392 16.7074 20.004 16.9373C20.105 17.0746 20.1768 17.2299 20.2152 17.3943C20.2535 17.5587 20.2577 17.7289 20.2274 17.8948C20.1971 18.0574 20.1321 18.2121 20.0366 18.3491C19.9411 18.486 19.8172 18.6022 19.6728 18.6902L13.7706 22.3311C13.6586 22.4002 13.5363 22.4522 13.408 22.4854C13.1283 22.5556 12.833 22.5411 12.562 22.4438C12.2911 22.3465 12.0576 22.171 11.8929 21.941C11.7124 21.694 11.6281 21.393 11.6549 21.0916L11.6751 20.8796L11.4558 20.8152C10.6261 20.5729 9.84531 20.1953 9.14696 19.6986L8.84464 19.4836L8.73346 19.8116C8.67378 19.9861 8.62664 20.1644 8.59239 20.3452C8.49125 20.8958 8.50473 21.4604 8.63205 22.006C8.75937 22.5515 8.99796 23.0669 9.33382 23.5219Z" fill="#F0F0FF"/>
</svg>
