<svg width="40" height="41" viewBox="0 0 40 41" fill="none" xmlns="http://www.w3.org/2000/svg">
<g clip-path="url(#clip0_1111_490)">
<path d="M20.0781 8.46875C14.7448 8.46875 11.4114 11.1355 10.0781 16.4688C12.0781 13.802 14.4114 12.802 17.0781 13.4688C18.5995 13.8491 19.687 14.953 20.8908 16.1747C22.8517 18.1652 25.1211 20.4688 30.0781 20.4688C35.4114 20.4688 38.7448 17.802 40.0781 12.4688C38.0781 15.1355 35.7448 16.1355 33.0781 15.4688C31.5567 15.0884 30.4692 13.9845 29.2655 12.7628C27.3045 10.7723 25.0352 8.46875 20.0781 8.46875ZM10.0781 20.4688C4.74484 20.4688 1.41141 23.1355 0.078125 28.4688C2.07812 25.802 4.41141 24.802 7.07812 25.4688C8.59953 25.8491 9.68703 26.953 10.8908 28.1747C12.8517 30.1652 15.1211 32.4688 20.0781 32.4688C25.4114 32.4688 28.7448 29.802 30.0781 24.4688C28.0781 27.1355 25.7448 28.1355 23.0781 27.4688C21.5567 27.0884 20.4692 25.9845 19.2655 24.7628C17.3045 22.7723 15.0352 20.4688 10.0781 20.4688Z" fill="url(#paint0_linear_1111_490)"/>
</g>
<defs>
<linearGradient id="paint0_linear_1111_490" x1="-111.042" y1="776.469" x2="3343.61" y2="2768.36" gradientUnits="userSpaceOnUse">
<stop stop-color="#707070"/>
<stop offset="1" stop-color="#737373"/>
</linearGradient>
<clipPath id="clip0_1111_490">
<rect width="40" height="40" fill="white" transform="translate(0 0.5)"/>
</clipPath>
</defs>
</svg>
