<svg width="32" height="32" viewBox="0 0 32 32" fill="none" xmlns="http://www.w3.org/2000/svg">
<g clip-path="url(#clip0_1512_450)">
<path d="M16.1484 5.87817C11.8818 5.87817 9.21506 8.01155 8.14844 12.2782C9.74844 10.1448 11.6151 9.3448 13.7484 9.87817C14.9656 10.1824 15.8356 11.0655 16.7986 12.0429C18.3673 13.6353 20.1828 15.4782 24.1484 15.4782C28.4151 15.4782 31.0818 13.3448 32.1484 9.07817C30.5484 11.2115 28.6818 12.0115 26.5484 11.4782C25.3313 11.1739 24.4613 10.2908 23.4983 9.31342C21.9296 7.72105 20.1141 5.87817 16.1484 5.87817ZM8.14844 15.4782C3.88181 15.4782 1.21506 17.6115 0.148438 21.8782C1.74844 19.7448 3.61506 18.9448 5.74844 19.4782C6.96556 19.7824 7.83556 20.6655 8.79856 21.6429C10.3673 23.2353 12.1828 25.0782 16.1484 25.0782C20.4151 25.0782 23.0818 22.9448 24.1484 18.6782C22.5484 20.8115 20.6818 21.6115 18.5484 21.0782C17.3313 20.7739 16.4613 19.8908 15.4983 18.9134C13.9296 17.321 12.1141 15.4782 8.14844 15.4782Z" fill="#F0F0FF"/>
</g>
<defs>
<clipPath id="clip0_1512_450">
<rect width="32" height="32" fill="white"/>
</clipPath>
</defs>
</svg>
