<svg width="40" height="41" viewBox="0 0 40 41" fill="none" xmlns="http://www.w3.org/2000/svg">
<g clip-path="url(#clip0_1111_500)">
<path d="M3.125 0.5H36.875C38.6009 0.5 40 1.89906 40 3.625V37.375C40 39.1009 38.6009 40.5 36.875 40.5H3.125C1.39906 40.5 0 39.1009 0 37.375V3.625C0 1.89906 1.39906 0.5 3.125 0.5Z" fill="#7C7C7C"/>
<path d="M23.5184 31.8242V36.1398C24.2203 36.4995 25.0505 36.7692 26.0087 36.9491C26.967 37.1289 27.977 37.2188 29.0389 37.2188C30.0736 37.2188 31.0567 37.1198 31.988 36.922C32.9192 36.7242 33.7359 36.3983 34.4377 35.9444C35.1395 35.4903 35.6952 34.8969 36.1047 34.1641C36.5141 33.4314 36.7188 32.5256 36.7188 31.4467C36.7188 30.6645 36.6017 29.9789 36.3678 29.39C36.1365 28.8051 35.7925 28.2713 35.3555 27.8189C34.9147 27.3603 34.3859 26.9491 33.7697 26.5848C33.1533 26.2208 32.4581 25.8769 31.6842 25.5533C31.1173 25.3194 30.6091 25.0925 30.1591 24.8722C29.7092 24.6519 29.3267 24.4272 29.0119 24.1978C28.6969 23.9686 28.4539 23.7258 28.283 23.4695C28.112 23.2133 28.0266 22.9234 28.0266 22.5997C28.0266 22.303 28.103 22.0356 28.2559 21.7973C28.4089 21.5591 28.625 21.3545 28.9039 21.1838C29.1828 21.0128 29.5247 20.8803 29.9297 20.7858C30.3345 20.6914 30.7845 20.6442 31.2794 20.6442C31.6394 20.6442 32.0195 20.6712 32.4198 20.7252C32.8203 20.7791 33.223 20.8622 33.628 20.9747C34.0317 21.0866 34.4264 21.2286 34.8089 21.3995C35.1798 21.5639 35.5345 21.7625 35.8684 21.9928V17.9605C35.2116 17.7088 34.4939 17.5222 33.7156 17.4008C32.9373 17.2794 32.0442 17.2188 31.0364 17.2188C30.0106 17.2188 29.0389 17.3289 28.1211 17.5492C27.2033 17.7694 26.3956 18.1133 25.6983 18.5808C25.0009 19.0484 24.4498 19.6441 24.0448 20.3678C23.64 21.0916 23.4375 21.9569 23.4375 22.9639C23.4375 24.2495 23.8086 25.3464 24.5511 26.2545C25.2934 27.1625 26.4203 27.9312 27.932 28.5606C28.4901 28.7879 29.0436 29.0262 29.5922 29.2755C30.1052 29.5092 30.5483 29.7519 30.9217 30.0036C31.2952 30.2553 31.5898 30.5295 31.8058 30.8263C32.0217 31.123 32.1297 31.4602 32.1297 31.8378C32.1315 32.1096 32.0616 32.3771 31.9272 32.6133C31.7923 32.8514 31.5875 33.0583 31.3131 33.2336C31.0388 33.4089 30.6967 33.5459 30.2873 33.6448C29.878 33.7437 29.3988 33.7933 28.8498 33.7933C27.9141 33.7933 26.9873 33.6292 26.0695 33.3009C25.1516 32.9728 24.3013 32.4806 23.5184 31.8242ZM16.3253 21.0847H21.875V17.5312H6.40625V21.0847H11.9289V36.9062H16.3253V21.0847Z" fill="white"/>
</g>
<defs>
<clipPath id="clip0_1111_500">
<rect width="40" height="40" fill="white" transform="translate(0 0.5)"/>
</clipPath>
</defs>
</svg>
