<svg width="160" height="22" viewBox="0 0 160 22" fill="none" xmlns="http://www.w3.org/2000/svg">
<path d="M9.82146 3.11909C11.1628 3.11909 12.2945 3.42647 13.2167 4.04124C14.1388 4.65601 14.8514 5.45241 15.3544 6.43045C15.8574 7.40849 16.1647 8.44242 16.2765 9.53223H3.32448C3.40831 8.52625 3.70172 7.53424 4.20471 6.5562C4.70771 5.57816 5.43425 4.76778 6.38435 4.12507C7.33444 3.45442 8.48015 3.11909 9.82146 3.11909ZM16.3604 11.7119C16.3045 12.8855 16.0669 14.0172 15.6478 15.1071C15.2007 16.1689 14.5021 17.0631 13.552 17.7897C12.5739 18.5162 11.3304 18.8795 9.82146 18.8795C8.22865 18.8795 6.94323 18.4883 5.96519 17.7059C4.9592 16.9234 4.21869 15.8057 3.74364 14.3526H0.390357C0.893349 16.3925 1.89933 18.139 3.40831 19.5921C4.91729 21.0172 7.04103 21.7298 9.77954 21.7298C12.0151 21.7298 13.8733 21.2128 15.3544 20.1789C16.8075 19.117 17.8833 17.7617 18.5819 16.1131C19.2526 14.4644 19.5879 12.7458 19.5879 10.9574C19.5879 9.16896 19.2526 7.46438 18.5819 5.84363C17.8833 4.22288 16.8075 2.89553 15.3544 1.86161C13.8733 0.799735 12.0151 0.268799 9.77954 0.268799C7.57197 0.268799 5.72766 0.785763 4.24663 1.81969C2.73765 2.85362 1.63386 4.23685 0.935264 5.96937C0.236664 7.7019 -0.0707198 9.61607 0.0131128 11.7119H16.3604Z" fill="#D64A04"/>
<path d="M129.538 3.3718C127.386 3.3718 125.765 4.11232 124.675 5.59335C123.614 7.07438 123.083 8.87677 123.083 11.0005C123.083 12.3418 123.306 13.5993 123.753 14.773C124.228 15.9187 124.941 16.8548 125.891 17.5813C126.869 18.2799 128.085 18.6292 129.538 18.6292C130.991 18.6292 132.192 18.2799 133.142 17.5813C134.121 16.8548 134.833 15.9187 135.28 14.773C135.755 13.5993 135.993 12.3418 135.993 11.0005C135.993 8.87677 135.448 7.07438 134.358 5.59335C133.296 4.11232 131.689 3.3718 129.538 3.3718ZM128.49 21.731C126.534 21.731 124.885 21.228 123.544 20.222C122.23 19.1881 121.252 17.8608 120.61 16.24C119.967 14.6193 119.646 12.8728 119.646 11.0005C119.646 9.12827 119.967 7.38177 120.61 5.76102C121.252 4.14026 122.23 2.8269 123.544 1.82091C124.885 0.786983 126.562 0.27002 128.574 0.27002C130.53 0.27002 132.095 0.731096 133.268 1.65325C134.47 2.54745 135.378 3.73507 135.993 5.21611H136.58C136.188 3.84685 135.993 2.50554 135.993 1.19217V0.77301H139.43V21.228H135.993V20.8089C135.993 19.4676 136.188 18.1123 136.58 16.743H135.993C135.881 17.0504 135.755 17.3298 135.616 17.5813C135.196 18.3638 134.665 19.0763 134.023 19.719C133.408 20.3338 132.625 20.8228 131.675 21.1861C130.753 21.5494 129.691 21.731 128.49 21.731Z" fill="#D64A04"/>
<path d="M115.494 11.5454C116.277 12.3558 116.668 13.5434 116.668 15.1083C116.668 16.4217 116.319 17.5813 115.62 18.5873C114.921 19.5933 113.943 20.3757 112.686 20.9346C111.429 21.4655 109.989 21.731 108.369 21.731C106.748 21.731 105.309 21.4655 104.051 20.9346C102.794 20.3757 101.802 19.6073 101.075 18.6292C100.377 17.6232 100.027 16.4636 100.027 15.1502H103.213C103.241 16.3797 103.73 17.3159 104.68 17.9586C105.658 18.5733 106.888 18.8807 108.369 18.8807C109.207 18.8807 109.989 18.755 110.716 18.5035C111.47 18.252 112.085 17.8468 112.56 17.2879C113.035 16.729 113.273 16.0304 113.273 15.1921C113.273 14.3259 113.035 13.6552 112.56 13.1801C112.085 12.7051 111.484 12.3698 110.758 12.1742C110.031 11.9786 109.039 11.7969 107.782 11.6293C106.245 11.4616 104.987 11.252 104.009 11.0005C103.031 10.7211 102.193 10.2181 101.494 9.49154C100.796 8.765 100.447 7.7171 100.447 6.34784C100.447 5.1183 100.782 4.04246 101.452 3.12031C102.123 2.19815 103.059 1.49955 104.261 1.02451C105.462 0.521515 106.846 0.27002 108.411 0.27002C109.975 0.27002 111.359 0.521515 112.56 1.02451C113.762 1.49955 114.698 2.19815 115.369 3.12031C116.039 4.04246 116.375 5.1183 116.375 6.34784V6.68317H113.189V6.34784C113.189 5.28597 112.728 4.48956 111.806 3.95863C110.884 3.39975 109.766 3.12031 108.452 3.12031C107.195 3.12031 106.105 3.39975 105.183 3.95863C104.289 4.48956 103.842 5.272 103.842 6.30592C103.842 6.94864 104.037 7.45163 104.429 7.8149C104.848 8.17817 105.379 8.44364 106.021 8.61131C106.692 8.75103 107.558 8.89074 108.62 9.03046C110.269 9.25402 111.624 9.51948 112.686 9.82687C113.776 10.1343 114.712 10.7071 115.494 11.5454Z" fill="#D64A04"/>
<path d="M86.6992 21.731C84.7432 21.731 82.9408 21.256 81.2921 20.3059C79.6713 19.3278 78.3719 18.0284 77.3939 16.4077C76.4438 14.759 75.9688 12.9566 75.9688 11.0005C75.9688 9.04444 76.4438 7.25602 77.3939 5.63527C78.3719 3.98657 79.6713 2.68717 81.2921 1.73708C82.9408 0.759039 84.7432 0.27002 86.6992 0.27002C88.6553 0.27002 90.4437 0.759039 92.0645 1.73708C93.7132 2.68717 95.0126 3.98657 95.9627 5.63527C96.9407 7.25602 97.4297 9.04444 97.4297 11.0005C97.4297 12.9566 96.9407 14.759 95.9627 16.4077C95.0126 18.0284 93.7132 19.3278 92.0645 20.3059C90.4437 21.256 88.6553 21.731 86.6992 21.731ZM86.6992 18.6292C88.0406 18.6292 89.2701 18.2939 90.3879 17.6232C91.5056 16.9246 92.3859 16.0025 93.0286 14.8568C93.6713 13.6831 93.9926 12.3977 93.9926 11.0005C93.9926 9.60332 93.6713 8.33186 93.0286 7.18616C92.3859 6.01251 91.5056 5.09036 90.3879 4.4197C89.2701 3.7211 88.0406 3.3718 86.6992 3.3718C85.3579 3.3718 84.1284 3.7211 83.0106 4.4197C81.8929 5.09036 81.0126 6.01251 80.3699 7.18616C79.7272 8.33186 79.4059 9.60332 79.4059 11.0005C79.4059 12.3977 79.7272 13.6831 80.3699 14.8568C81.0126 16.0025 81.8929 16.9246 83.0106 17.6232C84.1284 18.2939 85.3579 18.6292 86.6992 18.6292Z" fill="#D64A04"/>
<path d="M70.9532 1.65367C72.0709 1.09479 73.3564 0.801382 74.8094 0.773438V3.87522C72.9931 3.87522 71.4841 4.29438 70.2825 5.1327C69.0809 5.94308 68.2007 6.99098 67.6418 8.2764C67.1109 9.56183 66.8454 10.9311 66.8454 12.3842V21.2285H63.4083V4.46205C63.4083 4.26644 63.3524 4.12672 63.2406 4.04289C63.1568 3.93111 63.0171 3.87522 62.8215 3.87522H60.7676V0.773438H64.9173C65.3644 0.773438 65.7416 0.913158 66.049 1.1926C66.3564 1.44409 66.5101 1.77942 66.5101 2.19858C66.5101 3.26045 66.3145 4.92312 65.9232 7.18659H66.5101C66.8733 5.90116 67.4183 4.79737 68.1448 3.87522C68.8993 2.92513 69.8354 2.18461 70.9532 1.65367Z" fill="#D64A04"/>
<path d="M56.8408 5.46788C57.3159 6.64153 57.5534 7.82915 57.5534 9.03074V21.2283H54.1163V9.36607C54.1163 7.82915 53.7251 6.48784 52.9426 5.34213C52.1881 4.16848 51.0285 3.46988 49.4636 3.24633C48.0943 3.02278 46.9207 3.19044 45.9426 3.74932C44.9646 4.3082 44.1822 5.10461 43.5953 6.13854C43.0085 7.14452 42.6033 8.27625 42.3798 9.53373C42.2121 10.9309 42.1283 12.384 42.1283 13.893V21.2283H38.9427V9.36607C38.9427 7.77326 38.5794 6.41798 37.8529 5.30022C37.1263 4.18246 35.9527 3.49783 34.3319 3.24633C32.9627 3.05072 31.789 3.23236 30.811 3.79124C29.8329 4.32218 29.0365 5.10461 28.4218 6.13854C27.8349 7.17247 27.4297 8.3042 27.2062 9.53373L27.1643 9.74331C27.1084 10.5257 27.0525 11.1964 26.9966 11.7553C26.9687 12.2862 26.9547 12.9988 26.9547 13.893V21.2283H23.5176V0.773287H26.9547V2.32418C26.9547 2.99484 26.8709 3.74932 26.7032 4.58765C26.5635 5.39802 26.3818 6.15251 26.1583 6.85111H26.7451C27.1922 5.23036 27.9048 3.88904 28.8828 2.82717C29.8609 1.7653 30.9926 1.03876 32.278 0.64754C33.5914 0.228379 34.9467 0.186463 36.3439 0.521792C37.6014 0.801232 38.5934 1.36011 39.3199 2.19843C40.0465 3.00881 40.5355 3.8611 40.787 4.75531C41.0664 5.62157 41.1782 6.32017 41.1223 6.85111H41.7091C42.2121 5.23036 42.9666 3.88904 43.9726 2.82717C44.9786 1.7653 46.1243 1.02478 47.4097 0.605624C48.7231 0.186464 50.0923 0.15852 51.5175 0.521792C52.8029 0.829176 53.8927 1.44394 54.7869 2.3661C55.7091 3.2603 56.3937 4.29423 56.8408 5.46788Z" fill="#D64A04"/>
<path d="M144.534 11.5442C143.752 12.3546 143.36 13.5422 143.36 15.1071C143.36 16.4204 143.71 17.5801 144.408 18.5861C145.107 19.5921 146.085 20.3745 147.342 20.9334C148.6 21.4643 150.039 21.7298 151.66 21.7298C153.28 21.7298 154.72 21.4643 155.977 20.9334C157.235 20.3745 158.227 19.6061 158.953 18.628C159.652 17.622 160.001 16.4624 160.001 15.149H156.815C156.787 16.3785 156.298 17.3146 155.348 17.9574C154.37 18.5721 153.141 18.8795 151.66 18.8795C150.821 18.8795 150.039 18.7538 149.312 18.5023C148.558 18.2508 147.943 17.8456 147.468 17.2867C146.993 16.7278 146.756 16.0292 146.756 15.1909C146.756 14.3246 146.993 13.654 147.468 13.1789C147.943 12.7039 148.544 12.3686 149.27 12.1729C149.997 11.9773 150.989 11.7957 152.247 11.628C153.783 11.4604 155.041 11.2508 156.019 10.9993C156.997 10.7199 157.835 10.2169 158.534 9.49032C159.233 8.76378 159.582 7.71588 159.582 6.34662C159.582 5.11708 159.246 4.04124 158.576 3.11909C157.905 2.19693 156.969 1.49833 155.767 1.02329C154.566 0.520295 153.183 0.268799 151.618 0.268799C150.053 0.268799 148.67 0.520295 147.468 1.02329C146.266 1.49833 145.33 2.19693 144.66 3.11909C143.989 4.04124 143.654 5.11708 143.654 6.34662V6.68195H146.839V6.34662C146.839 5.28475 147.3 4.48834 148.223 3.95741C149.145 3.39853 150.262 3.11909 151.576 3.11909C152.833 3.11909 153.923 3.39853 154.845 3.95741C155.74 4.48834 156.187 5.27078 156.187 6.3047C156.187 6.94742 155.991 7.45041 155.6 7.81368C155.181 8.17695 154.65 8.44242 154.007 8.61008C153.336 8.74981 152.47 8.88952 151.408 9.02924C149.759 9.2528 148.404 9.51826 147.342 9.82565C146.253 10.133 145.316 10.7059 144.534 11.5442Z" fill="#D64A04"/>
</svg>
